<?xml version="1.0" encoding="UTF-8"?>
<svg width="137px" height="83px" viewBox="0 0 137 83" version="1.1" xmlns="http://www.w3.org/2000/svg" xmlns:xlink="http://www.w3.org/1999/xlink">
    <title>Group</title>
    <defs>
        <polygon id="path-1" points="0 0.133014706 37.7685667 0.133014706 37.7685667 44.9350147 0 44.9350147"></polygon>
        <polygon id="path-3" points="0.133073356 0.133014706 40.5909785 0.133014706 40.5909785 44.9998676 0.133073356 44.9998676"></polygon>
        <polygon id="path-5" points="0.05175 0.133080882 44.7797015 0.133080882 44.7797015 44.9352132 0.05175 44.9352132"></polygon>
    </defs>
    <g id="Page-1" stroke="none" stroke-width="1" fill="none" fill-rule="evenodd">
        <g id="HOLDING-PAGE" transform="translate(-532.000000, -25.000000)">
            <g id="Group" transform="translate(532.000000, 25.000000)">
                <g id="Group-10-Copy">
                    <g id="Group-3">
                        <mask id="mask-2" fill="white">
                            <use xlink:href="#path-1"></use>
                        </mask>
                        <g id="Clip-2"></g>
                        <path d="M22.7032333,44.9350147 L37.7685667,30.0456397 L37.7685667,44.9350147 L22.7032333,44.9350147 Z M37.7685667,15.0225882 L22.7032333,0.132882353 L37.7685667,0.132882353 L37.7685667,15.0225882 Z M12.3232333,1.66155882 L12.3232333,43.4711912 C4.88856667,38.4206029 -9.99999992e-05,31.6424779 -9.99999992e-05,22.5359338 C-9.99999992e-05,13.4290588 4.88856667,6.71247794 12.3232333,1.66155882 L12.3232333,1.66155882 Z" id="Fill-1" fill="#FFFFFF" mask="url(#mask-2)"></path>
                    </g>
                    <g id="Group-6" transform="translate(45.000000, 0.000000)">
                        <mask id="mask-4" fill="white">
                            <use xlink:href="#path-3"></use>
                        </mask>
                        <g id="Clip-5"></g>
                        <path d="M40.5909785,29.7137647 C40.5909785,37.4256397 36.3457339,42.3428824 28.9620519,44.9998676 L28.9620519,0.132882353 L40.5909785,0.132882353 L40.5909785,29.7137647 Z M0.133073356,0.132882353 L11.7623466,0.132882353 L11.7623466,44.9998676 C4.38213091,42.3428824 0.133073356,37.4256397 0.133073356,29.7137647 L0.133073356,0.132882353 Z" id="Fill-4" fill="#FFFFFF" mask="url(#mask-4)"></path>
                    </g>
                    <g id="Group-9" transform="translate(92.000000, 0.000000)">
                        <mask id="mask-6" fill="white">
                            <use xlink:href="#path-5"></use>
                        </mask>
                        <g id="Clip-8"></g>
                        <path d="M44.7797351,15.0224559 L30.3448097,0.133080882 L44.7797351,0.133080882 L44.7797351,15.0224559 Z M16.7843619,44.9352132 L27.9813022,44.9352132 L27.9813022,0.133080882 L16.7843619,0.133080882 L16.7843619,44.9352132 Z M14.4900336,0.133080882 L0.05175,14.8891103 L0.05175,0.133080882 L14.4900336,0.133080882 Z" id="Fill-7" fill="#FFFFFF" mask="url(#mask-6)"></path>
                    </g>
                </g>
                <path d="M7.462,80 L7.462,76.796 L10.798,76.796 L10.798,75.956 L7.462,75.956 L7.462,73.472 L11.014,73.472 L11.014,72.632 L6.514,72.632 L6.514,80 L7.462,80 Z M14.094,80.108 C14.778,80.108 15.342,79.748 15.642,79.328 L15.642,80 L16.554,80 L16.554,74.672 L15.642,74.672 L15.642,78.284 C15.45,78.86 14.934,79.28 14.31,79.28 C13.506,79.28 13.146,78.764 13.146,78.02 L13.146,74.672 L12.234,74.672 L12.234,78.164 C12.234,79.328 12.882,80.108 14.094,80.108 Z M19.25,80 L19.25,72.2 L18.35,72.2 L18.35,80 L19.25,80 Z M21.958,80 L21.958,72.2 L21.058,72.2 L21.058,80 L21.958,80 Z M28.85,80 L30.422,74.252 L31.97,80 L32.834,80 L34.79,72.632 L33.878,72.632 L32.366,78.488 L30.806,72.632 L30.05,72.632 L28.49,78.488 L26.978,72.632 L26.042,72.632 L27.998,80 L28.85,80 Z M37.786,80.108 C38.986,80.108 39.742,79.412 39.934,78.404 L39.082,78.404 C38.938,79.004 38.446,79.34 37.786,79.34 C36.886,79.34 36.25,78.644 36.238,77.504 L40.006,77.504 L40.006,77.18 C40.006,75.632 39.226,74.564 37.762,74.564 C36.31,74.564 35.338,75.752 35.338,77.348 C35.338,78.992 36.334,80.108 37.786,80.108 Z M39.094,76.82 L36.262,76.82 C36.394,75.884 36.97,75.332 37.774,75.332 C38.662,75.332 39.082,76.028 39.094,76.82 Z M43.806,80.108 C45.366,80.108 46.206,78.848 46.206,77.336 C46.206,75.836 45.366,74.564 43.806,74.564 C43.146,74.564 42.57,74.912 42.306,75.296 L42.306,72.2 L41.394,72.2 L41.394,80 L42.306,80 L42.306,79.376 C42.57,79.76 43.146,80.108 43.806,80.108 Z M43.674,79.292 C43.11,79.292 42.582,78.968 42.306,78.416 L42.306,76.256 C42.582,75.704 43.11,75.38 43.674,75.38 C44.694,75.38 45.294,76.208 45.294,77.336 C45.294,78.464 44.694,79.292 43.674,79.292 Z M49.37,80.108 C50.51,80.108 51.35,79.508 51.35,78.5 C51.35,77.756 50.906,77.252 49.994,77.012 L48.962,76.76 C48.458,76.616 48.218,76.448 48.218,76.088 C48.218,75.572 48.71,75.32 49.238,75.32 C49.886,75.32 50.258,75.596 50.414,76.076 L51.314,76.076 C51.122,75.14 50.426,74.564 49.25,74.564 C48.17,74.564 47.342,75.188 47.342,76.136 C47.342,76.964 47.87,77.348 48.626,77.54 L49.682,77.816 C50.234,77.96 50.474,78.188 50.474,78.56 C50.474,79.1 50.018,79.352 49.382,79.352 C48.758,79.352 48.29,79.088 48.122,78.536 L47.186,78.536 C47.354,79.52 48.206,80.108 49.37,80.108 Z M53.242,73.64 C53.566,73.64 53.83,73.376 53.83,73.064 C53.83,72.74 53.566,72.488 53.242,72.488 C52.93,72.488 52.666,72.74 52.666,73.064 C52.666,73.376 52.93,73.64 53.242,73.64 Z M53.698,80 L53.698,74.672 L52.798,74.672 L52.798,80 L53.698,80 Z M57.222,80.108 C57.546,80.108 57.858,80.036 58.062,79.928 L58.062,79.088 C57.882,79.208 57.618,79.304 57.366,79.304 C56.91,79.304 56.658,79.076 56.658,78.56 L56.658,75.44 L57.942,75.44 L57.942,74.672 L56.658,74.672 L56.658,73.268 L55.758,73.268 L55.758,74.672 L54.894,74.672 L54.894,75.44 L55.758,75.44 L55.758,78.656 C55.758,79.64 56.358,80.108 57.222,80.108 Z M61.514,80.108 C62.714,80.108 63.47,79.412 63.662,78.404 L62.81,78.404 C62.666,79.004 62.174,79.34 61.514,79.34 C60.614,79.34 59.978,78.644 59.966,77.504 L63.734,77.504 L63.734,77.18 C63.734,75.632 62.954,74.564 61.49,74.564 C60.038,74.564 59.066,75.752 59.066,77.348 C59.066,78.992 60.062,80.108 61.514,80.108 Z M62.822,76.82 L59.99,76.82 C60.122,75.884 60.698,75.332 61.502,75.332 C62.39,75.332 62.81,76.028 62.822,76.82 Z M70.926,80.108 C72.462,80.108 73.494,79.208 73.794,77.828 L72.858,77.828 C72.558,78.692 71.946,79.256 70.926,79.256 C69.51,79.256 68.574,78.056 68.574,76.316 C68.574,74.564 69.522,73.376 70.926,73.376 C71.946,73.376 72.558,73.94 72.858,74.792 L73.794,74.792 C73.494,73.424 72.474,72.524 70.926,72.524 C69.066,72.524 67.626,74.024 67.626,76.316 C67.626,78.608 69.066,80.108 70.926,80.108 Z M77.318,80.108 C78.77,80.108 79.766,78.968 79.766,77.336 C79.766,75.704 78.77,74.564 77.318,74.564 C75.854,74.564 74.87,75.704 74.87,77.336 C74.87,78.968 75.854,80.108 77.318,80.108 Z M77.318,79.316 C76.358,79.316 75.782,78.5 75.782,77.336 C75.782,76.172 76.358,75.356 77.318,75.356 C78.278,75.356 78.854,76.172 78.854,77.336 C78.854,78.5 78.278,79.316 77.318,79.316 Z M82.09,80 L82.09,76.328 C82.258,75.752 82.726,75.38 83.266,75.38 C83.95,75.38 84.274,75.872 84.274,76.616 L84.274,80 L85.174,80 L85.174,76.328 C85.342,75.752 85.81,75.38 86.35,75.38 C87.034,75.38 87.358,75.872 87.358,76.616 L87.358,80 L88.27,80 L88.27,76.472 C88.27,75.32 87.67,74.564 86.59,74.564 C85.846,74.564 85.306,74.936 84.97,75.416 C84.718,74.912 84.202,74.564 83.53,74.564 C82.87,74.564 82.354,74.876 82.09,75.296 L82.09,74.672 L81.19,74.672 L81.19,80 L82.09,80 Z M90.438,73.64 C90.762,73.64 91.026,73.376 91.026,73.064 C91.026,72.74 90.762,72.488 90.438,72.488 C90.126,72.488 89.862,72.74 89.862,73.064 C89.862,73.376 90.126,73.64 90.438,73.64 Z M90.894,80 L90.894,74.672 L89.994,74.672 L89.994,80 L90.894,80 Z M93.602,80 L93.602,76.388 C93.794,75.812 94.334,75.392 94.958,75.392 C95.762,75.392 96.134,75.908 96.134,76.652 L96.134,80 L97.046,80 L97.046,76.508 C97.046,75.344 96.386,74.564 95.174,74.564 C94.49,74.564 93.914,74.924 93.602,75.344 L93.602,74.672 L92.702,74.672 L92.702,80 L93.602,80 Z M100.798,82.16 C102.166,82.16 103.174,81.332 103.174,79.58 L103.174,74.672 L102.262,74.672 L102.262,75.272 C101.998,74.9 101.434,74.564 100.774,74.564 C99.214,74.564 98.386,75.848 98.386,77.264 C98.386,78.668 99.214,79.964 100.774,79.964 C101.434,79.964 101.998,79.616 102.262,79.244 L102.262,79.64 C102.262,80.792 101.758,81.392 100.798,81.392 C100.066,81.392 99.562,81.068 99.406,80.396 L98.518,80.396 C98.686,81.488 99.502,82.16 100.798,82.16 Z M100.906,79.148 C99.898,79.148 99.31,78.356 99.31,77.264 C99.31,76.16 99.898,75.368 100.906,75.368 C101.482,75.368 101.986,75.692 102.262,76.196 L102.262,78.32 C101.986,78.824 101.482,79.148 100.906,79.148 Z M110.138,80.108 C111.602,80.108 112.682,79.304 112.682,77.972 C112.682,76.928 112.022,76.292 110.846,75.992 L109.586,75.668 C108.818,75.464 108.41,75.164 108.41,74.54 C108.41,73.784 109.058,73.328 109.934,73.328 C110.906,73.328 111.458,73.808 111.686,74.468 L112.634,74.468 C112.358,73.304 111.458,72.524 109.934,72.524 C108.542,72.524 107.51,73.364 107.51,74.612 C107.51,75.728 108.254,76.244 109.274,76.508 L110.594,76.856 C111.446,77.072 111.77,77.444 111.77,78.02 C111.77,78.836 111.098,79.304 110.138,79.304 C109.238,79.304 108.542,78.896 108.266,78.08 L107.306,78.08 C107.582,79.376 108.674,80.108 110.138,80.108 Z M116.266,80.108 C117.718,80.108 118.714,78.968 118.714,77.336 C118.714,75.704 117.718,74.564 116.266,74.564 C114.802,74.564 113.818,75.704 113.818,77.336 C113.818,78.968 114.802,80.108 116.266,80.108 Z M116.266,79.316 C115.306,79.316 114.73,78.5 114.73,77.336 C114.73,76.172 115.306,75.356 116.266,75.356 C117.226,75.356 117.802,76.172 117.802,77.336 C117.802,78.5 117.226,79.316 116.266,79.316 Z M122.226,80.108 C123.678,80.108 124.674,78.968 124.674,77.336 C124.674,75.704 123.678,74.564 122.226,74.564 C120.762,74.564 119.778,75.704 119.778,77.336 C119.778,78.968 120.762,80.108 122.226,80.108 Z M122.226,79.316 C121.266,79.316 120.69,78.5 120.69,77.336 C120.69,76.172 121.266,75.356 122.226,75.356 C123.186,75.356 123.762,76.172 123.762,77.336 C123.762,78.5 123.186,79.316 122.226,79.316 Z M126.998,80 L126.998,76.388 C127.19,75.812 127.73,75.392 128.354,75.392 C129.158,75.392 129.53,75.908 129.53,76.652 L129.53,80 L130.442,80 L130.442,76.508 C130.442,75.344 129.782,74.564 128.57,74.564 C127.886,74.564 127.31,74.924 126.998,75.344 L126.998,74.672 L126.098,74.672 L126.098,80 L126.998,80 Z" id="FullWebsiteComingSoon" fill="#FFFFFF" fill-rule="nonzero"></path>
            </g>
        </g>
    </g>
</svg>