<svg width="137" height="83" viewBox="0 0 137 83" version="1.1" xmlns="http://www.w3.org/2000/svg" xmlns:xlink="http://www.w3.org/1999/xlink"><defs><path id="path-1" d="M0 .133h37.769v44.802H0z"/><path id="path-3" d="M.133.133h40.458V45H.133z"/><path id="path-5" d="M.052.133H44.78v44.802H.052z"/></defs><g id="Page-1" stroke="none" stroke-width="1" fill="none" fill-rule="evenodd"><g id="HOLDING-PAGE" transform="translate(-532 -25)"><g id="Group" transform="translate(532 25)"><g id="Group-10-Copy"><g id="Group-3"><mask id="mask-2" fill="#fff"><use xlink:href="#path-1"/></mask><path d="M22.703 44.935l15.066-14.89v14.89H22.703zM37.77 15.023L22.703.133H37.77v14.89zM12.323 1.662v41.81C4.89 38.42 0 31.641 0 22.535 0 13.429 4.889 6.712 12.323 1.662z" id="Fill-1" fill="#FFF" mask="url(#mask-2)"/></g><g id="Group-6" transform="translate(45)"><mask id="mask-4" fill="#fff"><use xlink:href="#path-3"/></mask><path d="M40.591 29.714c0 7.712-4.245 12.629-11.629 15.286V.133h11.629v29.58zM.133.133h11.63V45C4.382 42.343.132 37.426.132 29.714V.133z" id="Fill-4" fill="#FFF" mask="url(#mask-4)"/></g><g id="Group-9" transform="translate(92)"><mask id="mask-6" fill="#fff"><use xlink:href="#path-5"/></mask><path d="M44.78 15.022L30.345.133H44.78v14.89zM16.784 44.935h11.197V.133H16.784v44.802zM14.49.133L.052 14.89V.133H14.49z" id="Fill-7" fill="#FFF" mask="url(#mask-6)"/></g></g><path d="M7.462 80v-3.204h3.336v-.84H7.462v-2.484h3.552v-.84h-4.5V80h.948zm6.632.108c.684 0 1.248-.36 1.548-.78V80h.912v-5.328h-.912v3.612c-.192.576-.708.996-1.332.996-.804 0-1.164-.516-1.164-1.26v-3.348h-.912v3.492c0 1.164.648 1.944 1.86 1.944zM19.25 80v-7.8h-.9V80h.9zm2.708 0v-7.8h-.9V80h.9zm6.892 0l1.572-5.748L31.97 80h.864l1.956-7.368h-.912l-1.512 5.856-1.56-5.856h-.756l-1.56 5.856-1.512-5.856h-.936L27.998 80h.852zm8.936.108c1.2 0 1.956-.696 2.148-1.704h-.852c-.144.6-.636.936-1.296.936-.9 0-1.536-.696-1.548-1.836h3.768v-.324c0-1.548-.78-2.616-2.244-2.616-1.452 0-2.424 1.188-2.424 2.784 0 1.644.996 2.76 2.448 2.76zm1.308-3.288h-2.832c.132-.936.708-1.488 1.512-1.488.888 0 1.308.696 1.32 1.488zm4.712 3.288c1.56 0 2.4-1.26 2.4-2.772 0-1.5-.84-2.772-2.4-2.772-.66 0-1.236.348-1.5.732V72.2h-.912V80h.912v-.624c.264.384.84.732 1.5.732zm-.132-.816c-.564 0-1.092-.324-1.368-.876v-2.16c.276-.552.804-.876 1.368-.876 1.02 0 1.62.828 1.62 1.956 0 1.128-.6 1.956-1.62 1.956zm5.696.816c1.14 0 1.98-.6 1.98-1.608 0-.744-.444-1.248-1.356-1.488l-1.032-.252c-.504-.144-.744-.312-.744-.672 0-.516.492-.768 1.02-.768.648 0 1.02.276 1.176.756h.9c-.192-.936-.888-1.512-2.064-1.512-1.08 0-1.908.624-1.908 1.572 0 .828.528 1.212 1.284 1.404l1.056.276c.552.144.792.372.792.744 0 .54-.456.792-1.092.792-.624 0-1.092-.264-1.26-.816h-.936c.168.984 1.02 1.572 2.184 1.572zm3.872-6.468a.587.587 0 0 0 .588-.576.579.579 0 0 0-.588-.576.576.576 0 0 0-.576.576c0 .312.264.576.576.576zm.456 6.36v-5.328h-.9V80h.9zm3.524.108c.324 0 .636-.072.84-.18v-.84c-.18.12-.444.216-.696.216-.456 0-.708-.228-.708-.744v-3.12h1.284v-.768h-1.284v-1.404h-.9v1.404h-.864v.768h.864v3.216c0 .984.6 1.452 1.464 1.452zm4.292 0c1.2 0 1.956-.696 2.148-1.704h-.852c-.144.6-.636.936-1.296.936-.9 0-1.536-.696-1.548-1.836h3.768v-.324c0-1.548-.78-2.616-2.244-2.616-1.452 0-2.424 1.188-2.424 2.784 0 1.644.996 2.76 2.448 2.76zm1.308-3.288H59.99c.132-.936.708-1.488 1.512-1.488.888 0 1.308.696 1.32 1.488zm8.104 3.288c1.536 0 2.568-.9 2.868-2.28h-.936c-.3.864-.912 1.428-1.932 1.428-1.416 0-2.352-1.2-2.352-2.94 0-1.752.948-2.94 2.352-2.94 1.02 0 1.632.564 1.932 1.416h.936c-.3-1.368-1.32-2.268-2.868-2.268-1.86 0-3.3 1.5-3.3 3.792s1.44 3.792 3.3 3.792zm6.392 0c1.452 0 2.448-1.14 2.448-2.772s-.996-2.772-2.448-2.772c-1.464 0-2.448 1.14-2.448 2.772s.984 2.772 2.448 2.772zm0-.792c-.96 0-1.536-.816-1.536-1.98 0-1.164.576-1.98 1.536-1.98.96 0 1.536.816 1.536 1.98 0 1.164-.576 1.98-1.536 1.98zM82.09 80v-3.672c.168-.576.636-.948 1.176-.948.684 0 1.008.492 1.008 1.236V80h.9v-3.672c.168-.576.636-.948 1.176-.948.684 0 1.008.492 1.008 1.236V80h.912v-3.528c0-1.152-.6-1.908-1.68-1.908-.744 0-1.284.372-1.62.852-.252-.504-.768-.852-1.44-.852-.66 0-1.176.312-1.44.732v-.624h-.9V80h.9zm8.348-6.36a.587.587 0 0 0 .588-.576.579.579 0 0 0-.588-.576.576.576 0 0 0-.576.576c0 .312.264.576.576.576zm.456 6.36v-5.328h-.9V80h.9zm2.708 0v-3.612a1.446 1.446 0 0 1 1.356-.996c.804 0 1.176.516 1.176 1.26V80h.912v-3.492c0-1.164-.66-1.944-1.872-1.944-.684 0-1.26.36-1.572.78v-.672h-.9V80h.9zm7.196 2.16c1.368 0 2.376-.828 2.376-2.58v-4.908h-.912v.6c-.264-.372-.828-.708-1.488-.708-1.56 0-2.388 1.284-2.388 2.7 0 1.404.828 2.7 2.388 2.7.66 0 1.224-.348 1.488-.72v.396c0 1.152-.504 1.752-1.464 1.752-.732 0-1.236-.324-1.392-.996h-.888c.168 1.092.984 1.764 2.28 1.764zm.108-3.012c-1.008 0-1.596-.792-1.596-1.884 0-1.104.588-1.896 1.596-1.896.576 0 1.08.324 1.356.828v2.124c-.276.504-.78.828-1.356.828zm9.232.96c1.464 0 2.544-.804 2.544-2.136 0-1.044-.66-1.68-1.836-1.98l-1.26-.324c-.768-.204-1.176-.504-1.176-1.128 0-.756.648-1.212 1.524-1.212.972 0 1.524.48 1.752 1.14h.948c-.276-1.164-1.176-1.944-2.7-1.944-1.392 0-2.424.84-2.424 2.088 0 1.116.744 1.632 1.764 1.896l1.32.348c.852.216 1.176.588 1.176 1.164 0 .816-.672 1.284-1.632 1.284-.9 0-1.596-.408-1.872-1.224h-.96c.276 1.296 1.368 2.028 2.832 2.028zm6.128 0c1.452 0 2.448-1.14 2.448-2.772s-.996-2.772-2.448-2.772c-1.464 0-2.448 1.14-2.448 2.772s.984 2.772 2.448 2.772zm0-.792c-.96 0-1.536-.816-1.536-1.98 0-1.164.576-1.98 1.536-1.98.96 0 1.536.816 1.536 1.98 0 1.164-.576 1.98-1.536 1.98zm5.96.792c1.452 0 2.448-1.14 2.448-2.772s-.996-2.772-2.448-2.772c-1.464 0-2.448 1.14-2.448 2.772s.984 2.772 2.448 2.772zm0-.792c-.96 0-1.536-.816-1.536-1.98 0-1.164.576-1.98 1.536-1.98.96 0 1.536.816 1.536 1.98 0 1.164-.576 1.98-1.536 1.98zm4.772.684v-3.612a1.446 1.446 0 0 1 1.356-.996c.804 0 1.176.516 1.176 1.26V80h.912v-3.492c0-1.164-.66-1.944-1.872-1.944-.684 0-1.26.36-1.572.78v-.672h-.9V80h.9z" id="FullWebsiteComingSoon" fill="#FFF" fill-rule="nonzero"/></g></g></g></svg>