<svg xmlns="http://www.w3.org/2000/svg" version="1.1"><defs><font id="CalibreRegular" horiz-adv-x="500"><font-face font-family="CalibreRegular" font-weight="400" font-stretch="normal" units-per-em="1000" panose-1="2 11 5 3 3 2 2 6 2 3" ascent="650" descent="-350" x-height="444" cap-height="614" bbox="-120 -201 908 894" underline-thickness="30" underline-position="-70" unicode-range="U+0020-FB02"/><glyph glyph-name="f_f" unicode="ff" horiz-adv-x="550" d="M550 649v-68q-20 12-48 12-33 0-52.5-21T430 512v-68h100v-64H430V0h-75v380H169V0H95v380H20v64h75v68q0 65 38 103t98 38q34 0 58-10v-68q-19 12-47 12-34 0-53.5-21T169 506v-62h186v74q0 65 38 103t98 38q35 0 59-10z"/><glyph glyph-name=".notdef" horiz-adv-x="608"/><glyph glyph-name=".null" horiz-adv-x="0"/><glyph glyph-name="nonmarkingreturn" horiz-adv-x="333"/><glyph glyph-name="space" horiz-adv-x="221"/><glyph glyph-name="exclam" unicode="!" horiz-adv-x="203" d="M48 49q0 23 15.5 39t37.5 16q23 0 38.5-16T155 49t-15.5-38.5T101-5Q79-5 63.5 10.5T48 49zm26 144L57 614h89l-18-421H74z"/><glyph glyph-name="quotedbl" unicode="&quot;" horiz-adv-x="265" d="M40 395v219h66V395H40zm119 0v219h66V395h-66z"/><glyph glyph-name="numbersign" unicode="#" horiz-adv-x="576" d="M511 235l-12-59H395L353 0h-68l42 176H186L144 0H77l42 176H23l13 59h97l34 144H65l12 59h104l42 176h68l-43-176h141l43 176h67l-42-176h95l-12-59h-97l-34-144h102zM234 379l-34-144h141l34 144H234z"/><glyph glyph-name="dollar" unicode="$" horiz-adv-x="477" d="M210-89v99q-72 8-120.5 48.5T27 166h76q32-92 143-92 57 0 92 26.5t35 72.5q0 68-91 91l-102 27Q41 326 41 443q0 68 47 112.5T210 605v90h69v-93q129-22 160-149h-74q-29 88-136 88-52 0-84-25t-32-69q0-36 22.5-56t69.5-33l97-25q142-37 142-157 0-70-45.5-114T279 10v-99h-69z"/><glyph glyph-name="percent" unicode="%" horiz-adv-x="642" d="M99 0l383 614h62L161 0H99zm-7 490q0-31 21.5-52.5T166 416t53 21.5 22 52.5-22 53-53 22-52.5-22T92 490zm517-366q0-56-38.5-94.5T476-9t-94.5 38.5T343 124t38.5 94.5T476 257t94.5-38.5T609 124zM299 490q0-56-38.5-94.5T166 357t-94.5 38.5T33 490t38.5 94.5T166 623t94.5-38.5T299 490zm251-366q0 31-21.5 52.5T476 198t-53-21.5-22-52.5 22-53 53-22 52.5 22 21.5 53z"/><glyph glyph-name="ampersand" unicode="&amp;" horiz-adv-x="585" d="M434 474h-75q-2 39-25.5 63.5T270 562q-41 0-68-25t-27-67q0-21 11-43t21-34 34-38l172-183q26 60 29 136h70q-3-104-53-186L574 0h-99l-61 64Q341-9 238-9 151-9 95 44T39 179q0 54 31 99t81 69q-49 60-49 121 0 71 47.5 113T270 623q75 0 118-42t46-107zM238 54q82 0 134 55L193 300q-36-14-59-47t-23-74q0-55 35.5-90T238 54z"/><glyph glyph-name="quotesingle" unicode="'" horiz-adv-x="148" d="M40 395v219h68V395H40z"/><glyph glyph-name="parenleft" unicode="(" horiz-adv-x="321" d="M30 283q0 137 72.5 236T298 650v-80q-84-21-138.5-98T105 283t54.5-189T298-4v-80Q175-52 102.5 47T30 283z"/><glyph glyph-name="parenright" unicode=")" horiz-adv-x="321" d="M291 283q0-137-72.5-236T23-84v80q84 21 138.5 98T216 283t-54.5 189T23 570v80q123-32 195.5-131T291 283z"/><glyph glyph-name="asterisk" unicode="*" horiz-adv-x="332" d="M121 506l-90 53 22 38 91-52v104h44V545l91 52 22-38-91-53 91-52-22-38-91 52V363h-44v105l-91-52-22 38z"/><glyph glyph-name="plus" unicode="+" horiz-adv-x="540" d="M239 494h62V328h166v-62H301V100h-62v166H73v62h166v166z"/><glyph glyph-name="comma" unicode="," horiz-adv-x="171" d="M13-107L76-1Q32 6 32 49q0 23 15.5 38T86 102t38-15.5T139 44q0-28-22-63l-53-88H13z"/><glyph glyph-name="hyphen" unicode="-" horiz-adv-x="321" d="M40 226v70h241v-70H40z"/><glyph glyph-name="period" unicode="." horiz-adv-x="171" d="M32 49q0 23 15.5 39T86 104q22 0 37.5-16T139 49t-15.5-38.5T86-5Q63-5 47.5 10.5T32 49z"/><glyph glyph-name="slash" unicode="/" horiz-adv-x="333" d="M5-84l248 734h75L80-84H5z"/><glyph glyph-name="zero" unicode="0" horiz-adv-x="538" d="M269-9Q167-9 103.5 78.5T40 307t63.5 228.5T269 623t165.5-87.5T498 307 434.5 78.5 269-9zm0 561q-73 0-112.5-67T117 307t39.5-178T269 62q72 0 112 67.5T421 307t-40 177.5T269 552z"/><glyph glyph-name="one" unicode="1" horiz-adv-x="329" d="M254 615V0h-77v520L25 442v80l182 93h47z"/><glyph glyph-name="two" unicode="2" horiz-adv-x="457" d="M341 449q0 47-30 75.5T230 553q-54 0-84.5-33.5T110 430H29q9 87 63 140t138 53q87 0 137-47t50-126q0-14-3.5-29t-7-26-13-27.5T379 343t-20-26l-20-24-23.5-26.5L293 241 137 70h293V0H29v52l198 218q45 50 61 68t34.5 51 18.5 60z"/><glyph glyph-name="three" unicode="3" horiz-adv-x="460" d="M184 281v67h41q50 0 82.5 27.5T340 451q0 45-30.5 74.5T228 555t-83-30-39-79H29q11 79 65 128t134 49q86 0 136.5-46.5T415 455q0-50-26.5-88.5T319 315q50-14 79-52.5t29-90.5q0-78-53.5-129.5T230-9 82.5 41 17 175h77q8-54 43-85t92-31q55 0 89 30.5t34 81.5q0 50-35.5 80T227 281h-43z"/><glyph glyph-name="four" unicode="4" horiz-adv-x="509" d="M338 614L109 205h196v148h73V205h108v-66H378V0h-73v139H22v56l236 419h80z"/><glyph glyph-name="five" unicode="5" horiz-adv-x="469" d="M237 330q-65 0-109-53H66v337h336v-70H132V359q43 39 112 39 85 0 139-57.5T437 194q0-87-56-145T238-9Q150-9 94 40T27 175h77Q125 59 238 59q55 0 90 38.5t35 96.5-35 97-91 39z"/><glyph glyph-name="six" unicode="6" d="M127 196q0-60 37-99t96-39q58 0 95 38.5t37 99.5-37 100.5-95 39.5q-59 0-96-39t-37-101zm329 275h-78q-28 87-113 87-67 0-111-67.5T110 323q0-3 .5-13.5t.5-13.5q15 47 58 76t97 29q87 0 143-59.5T465 197q0-87-57-146.5T259-9Q134-9 76 108q-36 76-36 188 0 148 62.5 237.5T265 623q152 0 191-152z"/><glyph glyph-name="seven" unicode="7" horiz-adv-x="440" d="M415 553L196 0h-79l217 544H18v70h397v-61z"/><glyph glyph-name="eight" unicode="8" horiz-adv-x="487" d="M243 55q59 0 96.5 33t37.5 85-37.5 84.5T243 290q-58 0-95.5-32.5T110 173t37.5-85T243 55zm0 301q49 0 81 28t32 73-32 73.5-81 28.5q-48 0-80-28.5T131 457q0-44 32-72.5t80-28.5zm0-365Q153-9 93.5 40T34 167q0 58 33.5 100t86.5 56q-44 15-71 52t-27 86q0 73 53.5 117.5T243 623q81 0 134.5-44.5T431 461q0-49-27.5-85.5T333 323q52-14 86-56t34-100q0-78-59.5-127T243-9z"/><glyph glyph-name="nine" unicode="9" d="M373 418q0 60-37 99t-96 39q-58 0-95-38.5T108 418t37-100.5 95-39.5q59 0 96 39t37 101zM44 143h78q28-87 113-87 67 0 111 67.5T390 291q0 3-.5 13.5T389 318q-15-47-58-76t-97-29q-87 0-143 59.5T35 417q0 87 57 146.5T241 623q125 0 183-117 36-76 36-188 0-148-62.5-237.5T235-9Q83-9 44 143z"/><glyph glyph-name="colon" unicode=":" horiz-adv-x="171" d="M32 49q0 23 15.5 39T86 104q22 0 37.5-16T139 49t-15.5-38.5T86-5Q63-5 47.5 10.5T32 49zm0 314q0 23 15.5 39T86 418q22 0 37.5-16t15.5-39-15.5-38.5T86 309q-23 0-38.5 15.5T32 363z"/><glyph glyph-name="semicolon" unicode=";" horiz-adv-x="171" d="M13-107L76-1Q32 6 32 49q0 23 15.5 38T86 102t38-15.5T139 44q0-28-22-63l-53-88H13zm19 470q0 23 15.5 39T86 418q22 0 37.5-16t15.5-39-15.5-38.5T86 309q-23 0-38.5 15.5T32 363z"/><glyph glyph-name="less" unicode="&lt;" horiz-adv-x="423" d="M62 256v78l296 151v-71L120 295l238-119v-71z"/><glyph glyph-name="equal" unicode="=" horiz-adv-x="551" d="M79 199v58h394v-58H79zm0 138v60h394v-60H79z"/><glyph glyph-name="greater" unicode="&gt;" horiz-adv-x="423" d="M362 334v-78L65 105v71l238 119L65 414v71z"/><glyph glyph-name="question" unicode="?" horiz-adv-x="432" d="M170 49q0 23 15.5 39t37.5 16q23 0 38.5-16T277 49t-15.5-38.5T223-5q-22 0-37.5 15.5T170 49zm238 402q0-12-1.5-23.5T400 404t-7.5-20-12-21-12-18-15.5-19.5-14.5-16.5-16.5-18l-16-16q-41-44-43-82h-74q2 36 14.5 61t43.5 59q5 6 26.5 28.5t30.5 34 18.5 32.5 9.5 42q0 47-30 75t-81 28q-53 0-84-33.5T101 430H20q9 87 63.5 140T221 623q87 0 137-46.5T408 451z"/><glyph glyph-name="at" unicode="@" horiz-adv-x="774" d="M560 381l-43-243q-9-54 40-54 55 0 90 50t35 137q0 108-76 173.5T411 510q-140 0-228.5-91T94 188q0-76 28-134t75.5-89.5 101-47T412-98q116 0 217 46v-57q-94-45-217-45-60 0-114.5 12.5t-103 39-84.5 66-57 97T32 188q0 160 106 269t273 109q146 0 238.5-84T742 271q0-115-57.5-178T547 30q-36 0-63 15.5T447 88q-15-25-43.5-41T345 31q-61 0-96.5 42T213 179q0 85 51.5 148T395 390q63 0 91-46l7 37h67zM450 151l23 124q-9 23-28.5 38T399 328q-52 0-84.5-44.5T282 182q0-40 20.5-64.5T359 93q53 0 91 58z"/><glyph glyph-name="A" unicode="A" horiz-adv-x="596" d="M261 614h74L575 0h-80l-71 185H171L101 0H21zm36-98L197 254h200z"/><glyph glyph-name="B" unicode="B" horiz-adv-x="538" d="M388 318q49-13 80-53t31-92q0-83-54-128T295 0H73v614h202q96 0 149.5-42T478 451q0-52-25.5-86.5T388 318zm-238 29h125q127 0 127 100 0 98-127 98H150V347zm0-66V69h145q61 0 94 28.5t33 77.5q0 50-33 78t-94 28H150z"/><glyph glyph-name="C" unicode="C" horiz-adv-x="586" d="M37 307q0 141 78.5 228.5T312 623q95 0 157.5-51T551 434h-78q-42 118-161 118-88 0-142-67.5T116 307q0-109 54-177t142-68q120 0 161 119h78q-19-88-81.5-139T312-9Q194-9 115.5 78.5T37 307z"/><glyph glyph-name="D" unicode="D" horiz-adv-x="605" d="M152 71h117q104 0 162.5 63.5T490 307t-59 173-162 64H152V71zM73 0v614h197q135 0 216.5-83.5T568 307 486.5 83.5 270 0H73z"/><glyph glyph-name="E" unicode="E" horiz-adv-x="515" d="M73 614h391v-70H151V350h284v-70H151V71h313V0H73v614z"/><glyph glyph-name="F" unicode="F" horiz-adv-x="485" d="M152 0H73v614h375v-70H152V337h278v-70H152V0z"/><glyph glyph-name="G" unicode="G" horiz-adv-x="610" d="M498 235H351v68h222v-42q0-122-70.5-196T319-9Q197-9 117 78T37 307q0 141 80 228.5T317 623q96 0 159.5-51T559 434h-79q-43 118-163 118-90 0-145.5-67.5T116 307t56-178 147-68q79 0 125.5 46.5T498 235z"/><glyph glyph-name="H" unicode="H" horiz-adv-x="651" d="M499 614h79V0h-79v280H152V0H73v614h79V351h347v263z"/><glyph glyph-name="I" unicode="I" horiz-adv-x="225" d="M152 614V0H73v614h79z"/><glyph glyph-name="J" unicode="J" horiz-adv-x="479" d="M17 174h81q6-52 37-81.5T217 63q122 0 122 141v410h79V204q0-104-54.5-158.5T218-9Q129-9 76 41T17 174z"/><glyph glyph-name="K" unicode="K" horiz-adv-x="564" d="M152 614V307l286 307h100L275 334 547 0h-98L218 280l-66-71V0H73v614h79z"/><glyph glyph-name="L" unicode="L" horiz-adv-x="504" d="M73 0v614h79V71h313V0H73z"/><glyph glyph-name="M" unicode="M" horiz-adv-x="736" d="M396 0h-54L148 468V0H73v614h89l208-504 207 504h86V0h-75v468z"/><glyph glyph-name="N" unicode="N" horiz-adv-x="623" d="M550 614V0h-58L149 488V0H73v614h75l327-467v467h75z"/><glyph glyph-name="O" unicode="O" horiz-adv-x="629" d="M592 307q0-139-78-227.5T314-9Q193-9 115 79.5T37 307t78 227.5T314 623q122 0 200-88.5T592 307zm-79 0q0 108-55 176.5T314 552q-88 0-143-68.5T116 307t55-176.5T314 62q89 0 144 68.5T513 307z"/><glyph glyph-name="P" unicode="P" horiz-adv-x="537" d="M303 246H152V0H73v614h230q95 0 148.5-47.5T505 430t-54-136.5T303 246zm124 184q0 54-32.5 84.5T301 545H152V316h149q61 0 93.5 30.5T427 430z"/><glyph glyph-name="Q" unicode="Q" horiz-adv-x="628" d="M500-36l-50 63Q387-9 314-9 193-9 115 79.5T37 307t78 227.5T314 623q122 0 200-88.5T592 307q0-147-89-238l51-64zm13 343q0 108-55 176.5T314 552q-88 0-143-68.5T116 307t55-176.5T314 62q53 0 92 21l-52 66 54 40 50-64q55 66 55 182z"/><glyph glyph-name="R" unicode="R" horiz-adv-x="552" d="M261 260H152V0H73v614h228q94 0 147.5-46T502 436q0-75-41-119t-115-54L527 0h-90zM152 545V327h147q60 0 92.5 29t32.5 80-32.5 80-92.5 29H152z"/><glyph glyph-name="S" unicode="S" horiz-adv-x="509" d="M23 160h80Q138 58 259 58q61 0 98.5 28.5T395 165q0 37-23 60.5T297 262l-110 29Q40 329 40 449q0 77 57 125.5T242 623q93 0 150-43.5T467 461h-79q-33 95-146 95-56 0-91.5-27.5T115 455q0-38 24-59.5t74-34.5l105-27q153-39 153-165 0-82-59.5-130T259-9 103 35.5 23 160z"/><glyph glyph-name="T" unicode="T" horiz-adv-x="567" d="M30 544v70h507v-70H323V0h-79v544H30z"/><glyph glyph-name="U" unicode="U" horiz-adv-x="607" d="M303-9Q195-9 129 56T63 244v370h78V253q0-96 43-144t119-48 119 48 43 144v361h79V243q0-122-66-187T303-9z"/><glyph glyph-name="V" unicode="V" horiz-adv-x="590" d="M332 0h-74L21 614h83l192-510 193 510h80z"/><glyph glyph-name="W" unicode="W" horiz-adv-x="767" d="M353 614h63l130-488 126 488h76L585 0h-72L384 479 253 0h-71L19 614h78l126-488z"/><glyph glyph-name="X" unicode="X" horiz-adv-x="557" d="M532 614L323 314 541 0h-90L277 250 104 0H17l217 312L25 614h90l164-239 166 239h87z"/><glyph glyph-name="Y" unicode="Y" horiz-adv-x="557" d="M280 324l177 290h84L317 253V0h-78v253L17 614h86z"/><glyph glyph-name="Z" unicode="Z" horiz-adv-x="534" d="M492 71V0H41v57l349 487H46v70h442v-56L140 71h352z"/><glyph glyph-name="bracketleft" unicode="[" horiz-adv-x="313" d="M145 582V-16h145v-68H73v734h217v-68H145z"/><glyph glyph-name="backslash" unicode="\" horiz-adv-x="333" d="M80 650L328-84h-75L5 650h75z"/><glyph glyph-name="bracketright" unicode="]" horiz-adv-x="313" d="M168-16v598H23v68h217V-84H23v68h145z"/><glyph glyph-name="asciicircum" unicode="^" horiz-adv-x="357" d="M142 614h74l124-194h-78l-83 128-83-128H17z"/><glyph glyph-name="underscore" unicode="_" horiz-adv-x="367" d="M20-110v68h327v-68H20z"/><glyph glyph-name="grave" unicode="`" d="M329 516h-69l-89 134h78z"/><glyph glyph-name="a" unicode="a" horiz-adv-x="450" d="M389 0h-72v33q-14-15-47-28T200-8Q130-8 82.5 31T35 134q0 61 49 100t121 39q33 0 65-11t47-25v56q0 43-25.5 69T219 388q-70 0-91-61H54q11 56 56.5 91T220 453q79 0 124-42t45-115V0zm-72 110v46q-10 24-39.5 39.5T213 211q-44 0-75-20t-31-57q0-38 31-58.5T213 55q35 0 64.5 15.5T317 110z"/><glyph glyph-name="b" unicode="b" horiz-adv-x="502" d="M142 52V0H66v650h76V392q18 26 52 43.5t73 17.5q94 0 147-66.5T467 222q0-99-53-165T267-9q-39 0-73 17.5T142 52zm0 260V132q17-34 47.5-53.5T256 59q62 0 98.5 45.5T391 222t-36.5 117.5T256 385q-36 0-66.5-19.5T142 312z"/><glyph glyph-name="c" unicode="c" horiz-adv-x="446" d="M35 222q0 103 56 167t146 64q73 0 119.5-39T415 310h-77q-8 36-34.5 56.5T237 387q-57 0-91.5-46T111 222t34.5-119T237 57q40 0 66.5 20.5T338 134h77q-12-65-58.5-104T237-9Q147-9 91 55T35 222z"/><glyph glyph-name="d" unicode="d" horiz-adv-x="502" d="M360 0v52q-18-26-52-43.5T235-9Q141-9 88 57T35 222q0 98 53 164.5T235 453q39 0 73-17.5t52-43.5v258h76V0h-76zm0 132v180q-17 34-47.5 53.5T246 385q-62 0-98.5-45.5T111 222t36.5-117.5T246 59q36 0 66.5 19.5T360 132z"/><glyph glyph-name="e" unicode="e" horiz-adv-x="457" d="M347 133h71q-12-65-59-103.5T239-9Q148-9 91.5 54.5T35 221q0 101 56 166.5T237 453q89 0 138-59.5T424 235v-27H110q1-70 36.5-111.5T239 55q42 0 70.5 20.5T347 133zM238 389q-50 0-84-33t-42-91h236q-1 53-29 88.5T238 389z"/><glyph glyph-name="f" unicode="f" horiz-adv-x="289" d="M289 649v-68q-19 12-47 12-34 0-53.5-21T169 512v-68h100v-64H169V0H95v380H20v64h75v74q0 65 38 103t98 38q34 0 58-10z"/><glyph glyph-name="g" unicode="g" horiz-adv-x="501" d="M358 30v33q-18-25-51.5-42.5T234 3Q141 3 88 69T35 228q0 94 53 159.5T234 453q39 0 72.5-17t51.5-42v50h76V35q0-106-54.5-160.5T236-180q-80 0-129.5 39T46-33h74q19-83 116-83 122 0 122 146zm0 110v177q-38 69-113 69-62 0-97.5-44T112 228t35.5-113.5T245 71q75 0 113 69z"/><glyph glyph-name="h" unicode="h" horiz-adv-x="489" d="M67 0v650h75V388q21 28 55.5 46.5T273 453q74 0 115-44t41-118V0h-76v279q0 48-24.5 76.5T255 384q-39 0-70-23.5T142 301V0H67z"/><glyph glyph-name="i" unicode="i" horiz-adv-x="209" d="M142 444V0H67v444h75zm11 134q0-20-14.5-34T104 530t-34 14-14 34 14 34 34 14 34.5-14 14.5-34z"/><glyph glyph-name="j" unicode="j" horiz-adv-x="207" d="M142 444V-51q0-62-33.5-95T13-179q-21 0-32 4v64q18-3 26-3 60 0 60 68v490h75zm11 134q0-20-14.5-34T104 530t-34 14-14 34 14 34 34 14 34.5-14 14.5-34z"/><glyph glyph-name="k" unicode="k" horiz-adv-x="464" d="M359 0L190 205l-48-46V0H67v650h75V247l203 197h99L244 252 451 0h-92z"/><glyph glyph-name="l" unicode="l" horiz-adv-x="209" d="M142 650V0H67v650h75z"/><glyph glyph-name="m" unicode="m" horiz-adv-x="717" d="M382 382q50 71 135 71 67 0 103.5-43T657 294V0h-76v282q0 48-21 75.5T497 385q-34 0-61-21.5T399 306V0h-75v282q0 48-21 75.5T240 385q-34 0-61-21.5T142 306V0H67v444h75v-52q38 61 120 61 84 0 120-71z"/><glyph glyph-name="n" unicode="n" horiz-adv-x="489" d="M67 0v444h75v-56q21 28 55.5 46.5T273 453q74 0 115-44t41-118V0h-76v279q0 48-24.5 76.5T255 384q-39 0-70-23.5T142 301V0H67z"/><glyph glyph-name="o" unicode="o" horiz-adv-x="478" d="M443 222q0-102-56.5-166.5T239-9 91.5 55.5 35 222t56.5 166.5T239 453t147.5-64.5T443 222zm-76 0q0 74-34.5 119.5T239 387t-93.5-45.5T111 222t34.5-119.5T239 57t93.5 45.5T367 222z"/><glyph glyph-name="p" unicode="p" horiz-adv-x="502" d="M142 52v-222H67v614h75v-52q19 26 52.5 43.5T267 453q94 0 147-66.5T467 222 414 57.5 267-9q-39 0-72.5 17.5T142 52zm0 260V132q17-34 47.5-53.5T256 59q62 0 98.5 45.5T391 222t-36.5 117.5T256 385q-36 0-66.5-19.5T142 312z"/><glyph glyph-name="q" unicode="q" horiz-adv-x="502" d="M360-170V52q-19-26-52.5-43.5T235-9Q141-9 88 57.5T35 222t53 164.5T235 453q39 0 72.5-17.5T360 392v52h75v-614h-75zm0 302v180q-17 34-47.5 53.5T246 385q-62 0-98.5-45.5T111 222t36.5-117.5T246 59q36 0 66.5 19.5T360 132z"/><glyph glyph-name="r" unicode="r" horiz-adv-x="321" d="M295 446v-77q-18 12-50 12-36 0-64-22t-39-61V0H67v444h75v-58q15 29 44.5 48t65.5 19q29 0 43-7z"/><glyph glyph-name="s" unicode="s" horiz-adv-x="414" d="M30 122h78q21-68 105-68 41 0 66 16.5t25 49.5q0 45-66 62l-88 23Q43 232 43 322q0 58 45 94.5T202 453q72 0 116-33t56-93h-75q-20 63-98 63-35 0-60-16.5T116 326q0-22 14.5-34.5T178 270l86-21q113-30 113-124 0-62-46-98T212-9 89.5 26 30 122z"/><glyph glyph-name="t" unicode="t" horiz-adv-x="317" d="M88 112v268H16v64h72v117h75V444h107v-64H163V120q0-62 59-62 31 0 58 18V6Q252-9 210-9q-56 0-89 30.5T88 112z"/><glyph glyph-name="u" unicode="u" horiz-adv-x="487" d="M421 444V0h-76v56q-20-28-54-46.5T216-9q-74 0-114.5 44T61 153v291h76V165q0-49 24-77t73-28q38 0 68.5 23t42.5 60v301h76z"/><glyph glyph-name="v" unicode="v" horiz-adv-x="455" d="M264 0h-74L18 444h81L229 95l129 349h79z"/><glyph glyph-name="w" unicode="w" horiz-adv-x="629" d="M349 444l91-339 98 339h73L480 0h-73l-92 337L222 0h-73L18 444h75l98-339 91 339h67z"/><glyph glyph-name="x" unicode="x" horiz-adv-x="449" d="M422 444L266 230 431 0h-85L223 173 99 0H18l164 227L27 444h86l112-159 115 159h82z"/><glyph glyph-name="y" unicode="y" horiz-adv-x="455" d="M198-170h-74L191-3 18 444h81L230 94l129 350h78z"/><glyph glyph-name="z" unicode="z" horiz-adv-x="434" d="M390 64V0H41v49l249 331H49v64h337v-49L139 64h251z"/><glyph glyph-name="braceleft" unicode="{" horiz-adv-x="339" d="M175 206V21q0-37 36-37h105v-68H212q-49 0-80 31.5T101 28v183q0 37-35 37H20v70h46q35 0 35 37v183q0 49 31 80.5t80 31.5h104v-68H211q-36 0-36-37V360q0-51-43-77 43-26 43-77z"/><glyph glyph-name="bar" unicode="|" horiz-adv-x="219" d="M73-84v734h73V-84H73z"/><glyph glyph-name="braceright" unicode="}" horiz-adv-x="339" d="M164 21v185q0 51 43 77-43 26-43 77v185q0 37-36 37H23v68h104q49 0 80-31.5t31-80.5V355q0-37 35-37h46v-70h-46q-35 0-35-37V28q0-49-31-80.5T127-84H23v68h105q36 0 36 37z"/><glyph glyph-name="asciitilde" unicode="~" horiz-adv-x="418" d="M315 335h63q0-61-25.5-95T281 206q-26 0-51 16.5t-46 33-38 16.5q-43 0-43-62H40q0 60 25.5 94t71.5 34q33 0 74.5-33t60.5-33q43 0 43 63z"/><glyph glyph-name="uni00A0" horiz-adv-x="221"/><glyph glyph-name="exclamdown" unicode="¡" horiz-adv-x="209" d="M48 469q0 23 15.5 38.5T101 523q23 0 38.5-15.5T155 469t-15.5-39-38.5-16q-22 0-37.5 16T48 469zm9-565l17 421h54l18-421H57z"/><glyph glyph-name="cent" unicode="¢" horiz-adv-x="446" d="M35 232q0 94 47 156t125 73v87h69v-88q58-10 93.5-48.5T414 315h-75q-7 38-34 60t-68 22q-57 0-91.5-46T111 232t34.5-119T237 67q41 0 68 22t34 60h75q-8-58-44-96.5T276 4v-91h-69V3Q129 14 82 76T35 232z"/><glyph glyph-name="sterling" unicode="£" horiz-adv-x="488" d="M187 425v-91h154v-62H187V156q0-60-23-91h296V0H31v65h61q22 39 22 91v116H31v62h83v91q0 87 49.5 142.5T293 623q71 0 115-39.5T462 478h-73q-14 79-96 79-50 0-78-35.5T187 425z"/><glyph glyph-name="yen" unicode="¥" horiz-adv-x="535" d="M71 264v59h127L25 614h84l160-275 159 275h81L336 323h127v-59H306v-70h157v-60H306V0h-78v134H71v60h157v70H71z"/><glyph glyph-name="section" unicode="§" horiz-adv-x="455" d="M363 88q16-27 16-61 0-59-43-93.5T224-101q-74 0-118.5 36T51 33h73q18-72 100-72 36 0 59 16.5T306 24q0 24-12.5 39T251 97l-127 85q-50 32-75.5 63T23 320q0 36 18 66t50 47q-16 26-16 62 0 59 43.5 93.5T231 623q73 0 118-36t55-98h-74q-18 72-99 72-36 0-59.5-16.5T148 498q0-24 12-38t44-35l126-84q49-32 75-63.5t26-75.5q0-36-18.5-67T363 88zM159 242l156-105q46 14 46 63 0 17-11 32.5t-22 24-33 23.5L139 386q-45-15-45-64 0-17 10.5-32.5t22-24.5 32.5-23z"/><glyph glyph-name="dieresis" unicode="¨" d="M133 571q0 20 13.5 33.5T180 618q19 0 32.5-13.5T226 571q0-19-13.5-32.5T180 525t-33 13.5-14 32.5zm141 0q0 20 13 33.5t32 13.5q20 0 33.5-13.5T366 571q0-19-14-32.5T319 525t-32 13.5-13 32.5z"/><glyph glyph-name="copyright" unicode="©" horiz-adv-x="706" d="M669 307q0-136-92-226T353-9 129 81 37 307t92 226 224 90 224-90 92-226zm-39 0q0 119-80.5 198T353 584t-196.5-79T76 307t80.5-198T353 30t196.5 79T630 307zm-454 2q0 89 51 144t130 55q65 0 105.5-34.5T515 381h-74q-20 59-84 59-48 0-77.5-36T250 309t29.5-95 77.5-36q64 0 84 59h74q-12-58-53-92.5T357 110q-79 0-130 55t-51 144z"/><glyph glyph-name="ordfeminine" unicode="ª" horiz-adv-x="292" d="M264 321h-65v21q-24-26-76-26-47 0-78.5 25T13 410q0 41 32.5 67.5T126 504q43 0 73-23v33q0 24-14.5 39T143 568q-42 0-53-35H26q8 41 40 66t79 25q56 0 87.5-29.5T264 513V321zm-65 76v27q-6 13-23.5 22t-37.5 9q-25 0-42.5-11.5T78 411q0-22 17.5-33.5T138 366q20 0 37.5 9t23.5 22z"/><glyph glyph-name="guillemotleft" unicode="«" horiz-adv-x="357" d="M187 74h-70L25 222l92 148h70L95 222zm145 0h-70l-92 148 92 148h70l-92-148z"/><glyph glyph-name="registered" unicode="®" horiz-adv-x="412" d="M387 440q0-78-53-130.5T206 257 78 309.5 25 440t53 130.5T206 623t128-52.5T387 440zm-31 0q0 67-43.5 110.5T206 594 99 550.5 55 440q0-66 44-109.5T206 287t106.5 43.5T356 440zm-154-26h-25v-68h-42v192h84q32 0 50-16.5t18-46.5q0-46-42-57l49-72h-47zm45 61q0 12-8 19.5t-22 7.5h-40v-53h40q14 0 22 7.5t8 18.5z"/><glyph glyph-name="macron" unicode="¯" d="M143 530v61h213v-61H143z"/><glyph glyph-name="degree" unicode="°" horiz-adv-x="336" d="M100 499q0-28 20-48t48-20 48 20 20 48-20 48.5-48 20.5-48-20.5-20-48.5zm191 0q0-52-36-88t-87-36-87 36-36 88 36 88 87 36 87-36 36-88z"/><glyph glyph-name="plusminus" unicode="±" horiz-adv-x="544" d="M241 518h62V389h164v-62H303V198h-62v129H78v62h163v129zM78 88v62h389V88H78z"/><glyph glyph-name="twosuperior" unicode="²" horiz-adv-x="276" d="M184 519q0 20-13 32t-33 12q-22 0-35-15t-15-37H22q5 48 36.5 78t79.5 30q50 0 79-26.5t29-71.5q0-20-11-41t-20.5-32-32.5-36l-74-76h141v-54H23v43l112 117q27 28 38 44t11 33z"/><glyph glyph-name="threesuperior" unicode="³" horiz-adv-x="281" d="M114 427v48h24q23 0 37 12t14 34q0 20-13.5 32.5T140 566q-21 0-35.5-14T88 517H25q6 45 36 73.5t77 28.5q51 0 80.5-26.5T248 523q0-25-12.5-44.5T203 451q50-18 50-73 0-44-30.5-72.5T140 277q-53 0-84 28t-36 77h65q7-51 56-51 24 0 38.5 13t14.5 36q0 22-15 34.5T140 427h-26z"/><glyph glyph-name="acute" unicode="´" d="M240 516h-69l80 134h78z"/><glyph glyph-name="paragraph" unicode="¶" horiz-adv-x="489" d="M353-90v704h63V-90h-63zm-133 0v391q-82 0-143.5 40T15 458t61.5 116.5T220 614h63V-90h-63z"/><glyph glyph-name="periodcentered" unicode="·" horiz-adv-x="176" d="M34 262q0 23 15.5 39T88 317q22 0 37.5-16t15.5-39-15.5-38.5T88 208q-23 0-38.5 15.5T34 262z"/><glyph glyph-name="cedilla" unicode="¸" d="M250-183h-71l66 132h74z"/><glyph glyph-name="onesuperior" unicode="¹" horiz-adv-x="221" d="M170 615V282h-63v259l-88-44v64l109 54h42z"/><glyph glyph-name="ordmasculine" unicode="º" horiz-adv-x="310" d="M296 469q0-68-39-111.5T155 314 52.5 357.5 13 469t39.5 111.5T155 624t102-43.5T296 469zm-68 0q0 43-20 70t-53 27-53-27-20-70 20-69.5 53-26.5 53 26.5 20 69.5z"/><glyph glyph-name="guillemotright" unicode="»" horiz-adv-x="357" d="M240 74h-70l92 148-92 148h70l92-148zM95 74H25l92 148-92 148h70l92-148z"/><glyph glyph-name="onequarter" unicode="¼" horiz-adv-x="667" d="M569 614L140 0H73l429 614h67zm-378 1V282h-62v259l-88-44v64l108 54h42zm345-282L429 122h81v67h56v-67h52V69h-52V0h-56v69H360v47l114 217h62z"/><glyph glyph-name="onehalf" unicode="½" horiz-adv-x="682" d="M569 614L140 0H73l429 614h67zm-378 1V282h-62v259l-88-44v64l108 54h42zm369-378q0 20-12.5 32T515 281q-22 0-35.5-15T464 229h-65q5 48 36 78.5t79 30.5q50 0 79.5-27t29.5-72q0-20-11-41t-20.5-32-32.5-36l-74-76h141V0H400v43l111 117q26 27 37.5 43.5T560 237z"/><glyph glyph-name="threequarters" unicode="¾" horiz-adv-x="706" d="M608 614L179 0h-67l429 614h67zM140 426v49h24q22 0 36.5 12t14.5 33q0 20-13.5 32.5T166 565q-21 0-35.5-14T114 516H51q6 45 36 74t77 29q51 0 80.5-26.5T274 523q0-25-12.5-45T229 450q23-7 36.5-27t13.5-45q0-45-30.5-73.5T166 276t-83.5 28.5T46 382h65q7-52 56-52 24 0 38.5 13.5T220 379t-15 34.5-39 12.5h-26zm435-93L468 122h81v67h56v-67h52V69h-52V0h-56v69H399v47l114 217h62z"/><glyph glyph-name="questiondown" unicode="¿" horiz-adv-x="432" d="M262 469q0-23-15.5-39T209 414q-23 0-38.5 16T155 469t15.5 38.5T209 523q22 0 37.5-15.5T262 469zM24 67q0 12 1.5 23.5T32 114t7.5 20 12 21 12 18T79 192.5 93.5 209t16.5 18l16 16q41 44 43 82h74q-2-36-14.5-61T185 205q-5-6-26.5-28.5t-30.5-34-18.5-32.5-9.5-42q0-47 30-75t81-28q53 0 84 33.5T331 88h81q-9-87-63.5-140T211-105q-87 0-137 46.5T24 67z"/><glyph glyph-name="Agrave" unicode="À" horiz-adv-x="596" d="M261 614h74L575 0h-80l-71 185H171L101 0H21zm36-98L197 254h200zm40 152h-75l-92 117h87z"/><glyph glyph-name="Aacute" unicode="Á" horiz-adv-x="596" d="M261 614h74L575 0h-80l-71 185H171L101 0H21zm36-98L197 254h200zm36 152h-76l80 117h87z"/><glyph glyph-name="Acircumflex" unicode="Â" horiz-adv-x="596" d="M261 614h74L575 0h-80l-71 185H171L101 0H21zm36-98L197 254h200zm36 275l92-122h-68l-59 71-59-71h-68l92 122h70z"/><glyph glyph-name="Atilde" unicode="Ã" horiz-adv-x="596" d="M261 614h74L575 0h-80l-71 185H171L101 0H21zm36-98L197 254h200zm87 268h48q0-55-19.5-87T356 665q-26 0-60 28t-50 28q-34 0-34-53h-49q0 55 19.5 87t56.5 32q27 0 60.5-28t50.5-28q32 0 34 53z"/><glyph glyph-name="Adieresis" unicode="Ä" horiz-adv-x="596" d="M261 614h74L575 0h-80l-71 185H171L101 0H21zm36-98L197 254h200zM182 722q0 19 13.5 32.5T229 768q19 0 32.5-13.5T275 722t-13.5-32.5T229 676q-20 0-33.5 13.5T182 722zm141 0q0 19 13 32.5t32 13.5q20 0 33.5-13.5T415 722t-13.5-32.5T368 676q-19 0-32 13.5T323 722z"/><glyph glyph-name="Aring" unicode="Å" horiz-adv-x="596" d="M261 614h74L575 0h-80l-71 185H171L101 0H21zm36-98L197 254h200zm88 218q0-36-25-61t-62-25-62 25-25 61q0 37 25 62t62 25 62-25 25-62zm-42 0q0 19-13 32.5T298 780t-32-13.5-13-32.5 13-32 32-13 32 13 13 32z"/><glyph glyph-name="AE" unicode="Æ" horiz-adv-x="862" d="M390 614h421v-70H514V350h268v-70H514V71h297V0H437v185H215L103 0H21zm47-64L257 254h180v296z"/><glyph glyph-name="Ccedilla" unicode="Ç" horiz-adv-x="586" d="M37 307q0 141 78.5 228.5T312 623q95 0 157.5-51T551 434h-78q-42 118-161 118-88 0-142-67.5T116 307q0-109 54-177t142-68q120 0 161 119h78q-19-88-81.5-139T312-9Q194-9 115.5 78.5T37 307zm250-490h-71l66 132h74z"/><glyph glyph-name="Egrave" unicode="È" horiz-adv-x="515" d="M313 668h-75l-92 117h87zM73 614h391v-70H151V350h284v-70H151V71h313V0H73v614z"/><glyph glyph-name="Eacute" unicode="É" horiz-adv-x="515" d="M305 668h-76l80 117h87zM73 614h391v-70H151V350h284v-70H151V71h313V0H73v614z"/><glyph glyph-name="Ecircumflex" unicode="Ê" horiz-adv-x="515" d="M73 614h391v-70H151V350h284v-70H151V71h313V0H73v614zm235 177l92-122h-68l-59 71-59-71h-68l92 122h70z"/><glyph glyph-name="Edieresis" unicode="Ë" horiz-adv-x="515" d="M157 722q0 19 13.5 32.5T204 768q19 0 32.5-13.5T250 722t-13.5-32.5T204 676q-20 0-33.5 13.5T157 722zm141 0q0 19 13 32.5t32 13.5q20 0 33.5-13.5T390 722t-13.5-32.5T343 676q-19 0-32 13.5T298 722zM73 614h391v-70H151V350h284v-70H151V71h313V0H73v614z"/><glyph glyph-name="Igrave" unicode="Ì" horiz-adv-x="225" d="M152 614V0H73v614h79zm1 54H78l-92 117h87z"/><glyph glyph-name="Iacute" unicode="Í" horiz-adv-x="225" d="M152 614V0H73v614h79zm-8 54H68l80 117h87z"/><glyph glyph-name="Icircumflex" unicode="Î" horiz-adv-x="225" d="M152 614V0H73v614h79zm-5 177l92-122h-68l-59 71-59-71h-68l92 122h70z"/><glyph glyph-name="Idieresis" unicode="Ï" horiz-adv-x="225" d="M152 614V0H73v614h79zM-4 722q0 19 13.5 32.5T43 768q19 0 32.5-13.5T89 722t-13.5-32.5T43 676q-20 0-33.5 13.5T-4 722zm141 0q0 19 13 32.5t32 13.5q20 0 33.5-13.5T229 722t-13.5-32.5T182 676q-19 0-32 13.5T137 722z"/><glyph glyph-name="Eth" unicode="Ð" horiz-adv-x="620" d="M32 284v67h56v263h197q135 0 216.5-83.5T583 307 501.5 83.5 285 0H88v284H32zM167 71h117q104 0 162.5 63.5T505 307t-59 173-162 64H167V351h123v-67H167V71z"/><glyph glyph-name="Ntilde" unicode="Ñ" horiz-adv-x="623" d="M398 784h48q0-55-19.5-87T370 665q-26 0-60 28t-50 28q-34 0-34-53h-49q0 55 19.5 87t56.5 32q27 0 60.5-28t50.5-28q32 0 34 53zm152-170V0h-58L149 488V0H73v614h75l327-467v467h75z"/><glyph glyph-name="Ograve" unicode="Ò" horiz-adv-x="629" d="M355 668h-75l-92 117h87zm237-361q0-139-78-227.5T314-9Q193-9 115 79.5T37 307t78 227.5T314 623q122 0 200-88.5T592 307zm-79 0q0 108-55 176.5T314 552q-88 0-143-68.5T116 307t55-176.5T314 62q89 0 144 68.5T513 307z"/><glyph glyph-name="Oacute" unicode="Ó" horiz-adv-x="629" d="M346 668h-76l80 117h87zm246-361q0-139-78-227.5T314-9Q193-9 115 79.5T37 307t78 227.5T314 623q122 0 200-88.5T592 307zm-79 0q0 108-55 176.5T314 552q-88 0-143-68.5T116 307t55-176.5T314 62q89 0 144 68.5T513 307z"/><glyph glyph-name="Ocircumflex" unicode="Ô" horiz-adv-x="629" d="M592 307q0-139-78-227.5T314-9Q193-9 115 79.5T37 307t78 227.5T314 623q122 0 200-88.5T592 307zm-79 0q0 108-55 176.5T314 552q-88 0-143-68.5T116 307t55-176.5T314 62q89 0 144 68.5T513 307zM349 791l92-122h-68l-59 71-59-71h-68l92 122h70z"/><glyph glyph-name="Otilde" unicode="Õ" horiz-adv-x="629" d="M401 784h48q0-55-19.5-87T373 665q-26 0-60 28t-50 28q-34 0-34-53h-49q0 55 19.5 87t56.5 32q27 0 60.5-28t50.5-28q32 0 34 53zm191-477q0-139-78-227.5T314-9Q193-9 115 79.5T37 307t78 227.5T314 623q122 0 200-88.5T592 307zm-79 0q0 108-55 176.5T314 552q-88 0-143-68.5T116 307t55-176.5T314 62q89 0 144 68.5T513 307z"/><glyph glyph-name="Odieresis" unicode="Ö" horiz-adv-x="629" d="M198 722q0 19 13.5 32.5T245 768q19 0 32.5-13.5T291 722t-13.5-32.5T245 676q-20 0-33.5 13.5T198 722zm141 0q0 19 13 32.5t32 13.5q20 0 33.5-13.5T431 722t-13.5-32.5T384 676q-19 0-32 13.5T339 722zm253-415q0-139-78-227.5T314-9Q193-9 115 79.5T37 307t78 227.5T314 623q122 0 200-88.5T592 307zm-79 0q0 108-55 176.5T314 552q-88 0-143-68.5T116 307t55-176.5T314 62q89 0 144 68.5T513 307z"/><glyph glyph-name="multiply" unicode="×" horiz-adv-x="470" d="M193 295L71 416l43 42 120-122 122 122 43-42-122-121 122-122-43-43-122 122-120-122-43 43z"/><glyph glyph-name="Oslash" unicode="Ø" horiz-adv-x="639" d="M56 18l56 71q-70 87-70 218 0 139 78 227.5T319 623q97 0 170-60l47 60 46-33-54-67q69-86 69-216 0-139-78-227.5T319-9q-97 0-166 57l-50-63zm65 289q0-96 39-158l284 357q-51 46-125 46-88 0-143-68.5T121 307zm397 0q0 93-38 155L198 105q48-43 121-43 89 0 144 68.5T518 307z"/><glyph glyph-name="Ugrave" unicode="Ù" horiz-adv-x="607" d="M344 668h-75l-92 117h87zM303-9Q195-9 129 56T63 244v370h78V253q0-96 43-144t119-48 119 48 43 144v361h79V243q0-122-66-187T303-9z"/><glyph glyph-name="Uacute" unicode="Ú" horiz-adv-x="607" d="M335 668h-76l80 117h87zM303-9Q195-9 129 56T63 244v370h78V253q0-96 43-144t119-48 119 48 43 144v361h79V243q0-122-66-187T303-9z"/><glyph glyph-name="Ucircumflex" unicode="Û" horiz-adv-x="607" d="M303-9Q195-9 129 56T63 244v370h78V253q0-96 43-144t119-48 119 48 43 144v361h79V243q0-122-66-187T303-9zm35 800l92-122h-68l-59 71-59-71h-68l92 122h70z"/><glyph glyph-name="Udieresis" unicode="Ü" horiz-adv-x="607" d="M187 722q0 19 13.5 32.5T234 768q19 0 32.5-13.5T280 722t-13.5-32.5T234 676q-20 0-33.5 13.5T187 722zm141 0q0 19 13 32.5t32 13.5q20 0 33.5-13.5T420 722t-13.5-32.5T373 676q-19 0-32 13.5T328 722zM303-9Q195-9 129 56T63 244v370h78V253q0-96 43-144t119-48 119 48 43 144v361h79V243q0-122-66-187T303-9z"/><glyph glyph-name="Yacute" unicode="Ý" horiz-adv-x="557" d="M280 324l177 290h84L317 253V0h-78v253L17 614h86zm31 344h-76l80 117h87z"/><glyph glyph-name="Thorn" unicode="Þ" horiz-adv-x="537" d="M303 131H152V0H73v614h79V499h151q95 0 148.5-47.5T505 315t-54-136.5T303 131zm124 184q0 54-32.5 84.5T301 430H152V200h149q61 0 93.5 31t32.5 84z"/><glyph glyph-name="germandbls" unicode="ß" horiz-adv-x="510" d="M342 367q56-13 94-61t38-118q0-91-53-142.5T282-6q-49 0-86 17v69q29-18 80-18 59 0 92.5 35t33.5 98-41.5 99T248 330h-42v66h42q48 0 77 27.5t29 73.5q0 43-27.5 70T253 594q-55 0-83.5-36T141 463V0H67v463q0 88 49.5 142T252 659q81 0 127.5-44.5T426 501q0-50-23.5-85T342 367z"/><glyph glyph-name="agrave" unicode="à" horiz-adv-x="450" d="M389 0h-72v33q-14-15-47-28T200-8Q130-8 82.5 31T35 134q0 61 49 100t121 39q33 0 65-11t47-25v56q0 43-25.5 69T219 388q-70 0-91-61H54q11 56 56.5 91T220 453q79 0 124-42t45-115V0zm-72 110v46q-10 24-39.5 39.5T213 211q-44 0-75-20t-31-57q0-38 31-58.5T213 55q35 0 64.5 15.5T317 110zm-46 406h-69l-89 134h78z"/><glyph glyph-name="aacute" unicode="á" horiz-adv-x="450" d="M389 0h-72v33q-14-15-47-28T200-8Q130-8 82.5 31T35 134q0 61 49 100t121 39q33 0 65-11t47-25v56q0 43-25.5 69T219 388q-70 0-91-61H54q11 56 56.5 91T220 453q79 0 124-42t45-115V0zm-72 110v46q-10 24-39.5 39.5T213 211q-44 0-75-20t-31-57q0-38 31-58.5T213 55q35 0 64.5 15.5T317 110zm-57 406h-69l80 134h78z"/><glyph glyph-name="acircumflex" unicode="â" horiz-adv-x="450" d="M264 645l92-136h-65l-62 88-62-88h-65l92 136h70zM389 0h-72v33q-14-15-47-28T200-8Q130-8 82.5 31T35 134q0 61 49 100t121 39q33 0 65-11t47-25v56q0 43-25.5 69T219 388q-70 0-91-61H54q11 56 56.5 91T220 453q79 0 124-42t45-115V0zm-72 110v46q-10 24-39.5 39.5T213 211q-44 0-75-20t-31-57q0-38 31-58.5T213 55q35 0 64.5 15.5T317 110z"/><glyph glyph-name="atilde" unicode="ã" horiz-adv-x="450" d="M389 0h-72v33q-14-15-47-28T200-8Q130-8 82.5 31T35 134q0 61 49 100t121 39q33 0 65-11t47-25v56q0 43-25.5 69T219 388q-70 0-91-61H54q11 56 56.5 91T220 453q79 0 124-42t45-115V0zm-72 110v46q-10 24-39.5 39.5T213 211q-44 0-75-20t-31-57q0-38 31-58.5T213 55q35 0 64.5 15.5T317 110zm-5 523h48q0-54-19.5-86T284 515q-25 0-57.5 29T180 573q-34 0-34-55H98q0 54 19.5 86t56.5 32q25 0 57.5-29t46.5-29q32 0 34 55z"/><glyph glyph-name="adieresis" unicode="ä" horiz-adv-x="450" d="M113 571q0 20 13.5 33.5T160 618q19 0 32.5-13.5T206 571q0-19-13.5-32.5T160 525t-33 13.5-14 32.5zm141 0q0 20 13 33.5t32 13.5q20 0 33.5-13.5T346 571q0-19-14-32.5T299 525t-32 13.5-13 32.5zM389 0h-72v33q-14-15-47-28T200-8Q130-8 82.5 31T35 134q0 61 49 100t121 39q33 0 65-11t47-25v56q0 43-25.5 69T219 388q-70 0-91-61H54q11 56 56.5 91T220 453q79 0 124-42t45-115V0zm-72 110v46q-10 24-39.5 39.5T213 211q-44 0-75-20t-31-57q0-38 31-58.5T213 55q35 0 64.5 15.5T317 110z"/><glyph glyph-name="aring" unicode="å" horiz-adv-x="450" d="M389 0h-72v33q-14-15-47-28T200-8Q130-8 82.5 31T35 134q0 61 49 100t121 39q33 0 65-11t47-25v56q0 43-25.5 69T219 388q-70 0-91-61H54q11 56 56.5 91T220 453q79 0 124-42t45-115V0zm-72 110v46q-10 24-39.5 39.5T213 211q-44 0-75-20t-31-57q0-38 31-58.5T213 55q35 0 64.5 15.5T317 110zm-3 470q0-37-25-61.5T227 494t-62 24.5-25 61.5 25 61.5 62 24.5 62-24.5 25-61.5zm-42 0q0 19-13 32t-32 13-32-13-13-32 13-32 32-13 32 13 13 32z"/><glyph glyph-name="ae" unicode="æ" horiz-adv-x="731" d="M199 55q42 0 72.5 22t43.5 59v71H210q-44 0-74.5-19T105 132t27-57 67-20zm422 78h71q-12-65-59.5-103.5T512-9Q406-9 351 75 290-8 193-8 125-8 79.5 29.5T34 128q0 63 48.5 100.5T205 266h110v27q0 43-25 69t-72 26q-72 0-93-61H53q11 56 56.5 91T219 453q108 0 144-81 56 81 147 81 90 0 139-59.5T698 235v-27H383q1-71 37-112t92-41q42 0 71 20.5t38 57.5zM511 389q-50 0-84-33t-42-91h237q-2 53-30 88.5T511 389z"/><glyph glyph-name="ccedilla" unicode="ç" horiz-adv-x="446" d="M35 222q0 103 56 167t146 64q73 0 119.5-39T415 310h-77q-8 36-34.5 56.5T237 387q-57 0-91.5-46T111 222t34.5-119T237 57q40 0 66.5 20.5T338 134h77q-12-65-58.5-104T237-9Q147-9 91 55T35 222zm177-405h-71l66 132h74z"/><glyph glyph-name="egrave" unicode="è" horiz-adv-x="457" d="M347 133h71q-12-65-59-103.5T239-9Q148-9 91.5 54.5T35 221q0 101 56 166.5T237 453q89 0 138-59.5T424 235v-27H110q1-70 36.5-111.5T239 55q42 0 70.5 20.5T347 133zM238 389q-50 0-84-33t-42-91h236q-1 53-29 88.5T238 389zm41 127h-69l-89 134h78z"/><glyph glyph-name="eacute" unicode="é" horiz-adv-x="457" d="M270 516h-69l80 134h78zm77-383h71q-12-65-59-103.5T239-9Q148-9 91.5 54.5T35 221q0 101 56 166.5T237 453q89 0 138-59.5T424 235v-27H110q1-70 36.5-111.5T239 55q42 0 70.5 20.5T347 133zM238 389q-50 0-84-33t-42-91h236q-1 53-29 88.5T238 389z"/><glyph glyph-name="ecircumflex" unicode="ê" horiz-adv-x="457" d="M275 645l92-136h-65l-62 88-62-88h-65l92 136h70zm72-512h71q-12-65-59-103.5T239-9Q148-9 91.5 54.5T35 221q0 101 56 166.5T237 453q89 0 138-59.5T424 235v-27H110q1-70 36.5-111.5T239 55q42 0 70.5 20.5T347 133zM238 389q-50 0-84-33t-42-91h236q-1 53-29 88.5T238 389z"/><glyph glyph-name="edieresis" unicode="ë" horiz-adv-x="457" d="M125 571q0 20 13.5 33.5T172 618q19 0 32.5-13.5T218 571q0-19-13.5-32.5T172 525t-33 13.5-14 32.5zm141 0q0 20 13 33.5t32 13.5q20 0 33.5-13.5T358 571q0-19-14-32.5T311 525t-32 13.5-13 32.5zm81-438h71q-12-65-59-103.5T239-9Q148-9 91.5 54.5T35 221q0 101 56 166.5T237 453q89 0 138-59.5T424 235v-27H110q1-70 36.5-111.5T239 55q42 0 70.5 20.5T347 133zM238 389q-50 0-84-33t-42-91h236q-1 53-29 88.5T238 389z"/><glyph glyph-name="igrave" unicode="ì" horiz-adv-x="209" d="M142 444V0H67v444h75zm1 72H74l-89 134h78z"/><glyph glyph-name="iacute" unicode="í" horiz-adv-x="209" d="M134 516H65l80 134h78zm8-72V0H67v444h75z"/><glyph glyph-name="icircumflex" unicode="î" horiz-adv-x="209" d="M139 645l74-136h-64l-45 85-45-85H-4l74 136h69zm3-201V0H67v444h75z"/><glyph glyph-name="idieresis" unicode="ï" horiz-adv-x="209" d="M-3 571q0 20 13 33.5T43 618q19 0 32.5-13.5T89 571q0-19-13.5-32.5T43 525t-32.5 13.5T-3 571zm124 0q0 20 13 33.5t32 13.5q20 0 33.5-13.5T213 571q0-19-14-32.5T166 525t-32 13.5-13 32.5zm21-127V0H67v444h75z"/><glyph glyph-name="eth" unicode="ð" horiz-adv-x="478" d="M139 494l-18 47 80 26q-48 42-100 79v4h98q45-31 74-59l85 29 17-47-63-21q131-147 131-326 0-105-56.5-170T239-9 91.5 54.5 35 220t55 166 141 64q63 0 103-44h3q-22 50-94 122zm228-274q0 74-34.5 119T239 384t-93.5-45T111 220t34.5-118.5T239 57t93.5 44.5T367 220z"/><glyph glyph-name="ntilde" unicode="ñ" horiz-adv-x="489" d="M67 0v444h75v-56q21 28 55.5 46.5T273 453q74 0 115-44t41-118V0h-76v279q0 48-24.5 76.5T255 384q-39 0-70-23.5T142 301V0H67zm264 633h48q0-54-19.5-86T303 515q-25 0-57.5 29T199 573q-34 0-34-55h-48q0 54 19.5 86t56.5 32q25 0 57.5-29t46.5-29q32 0 34 55z"/><glyph glyph-name="ograve" unicode="ò" horiz-adv-x="478" d="M443 222q0-102-56.5-166.5T239-9 91.5 55.5 35 222t56.5 166.5T239 453t147.5-64.5T443 222zm-76 0q0 74-34.5 119.5T239 387t-93.5-45.5T111 222t34.5-119.5T239 57t93.5 45.5T367 222zm-90 294h-69l-89 134h78z"/><glyph glyph-name="oacute" unicode="ó" horiz-adv-x="478" d="M268 516h-69l80 134h78zm175-294q0-102-56.5-166.5T239-9 91.5 55.5 35 222t56.5 166.5T239 453t147.5-64.5T443 222zm-76 0q0 74-34.5 119.5T239 387t-93.5-45.5T111 222t34.5-119.5T239 57t93.5 45.5T367 222z"/><glyph glyph-name="ocircumflex" unicode="ô" horiz-adv-x="478" d="M274 645l92-136h-65l-62 88-62-88h-65l92 136h70zm169-423q0-102-56.5-166.5T239-9 91.5 55.5 35 222t56.5 166.5T239 453t147.5-64.5T443 222zm-76 0q0 74-34.5 119.5T239 387t-93.5-45.5T111 222t34.5-119.5T239 57t93.5 45.5T367 222z"/><glyph glyph-name="otilde" unicode="õ" horiz-adv-x="478" d="M443 222q0-102-56.5-166.5T239-9 91.5 55.5 35 222t56.5 166.5T239 453t147.5-64.5T443 222zm-76 0q0 74-34.5 119.5T239 387t-93.5-45.5T111 222t34.5-119.5T239 57t93.5 45.5T367 222zm-45 411h48q0-54-19.5-86T294 515q-25 0-57.5 29T190 573q-34 0-34-55h-48q0 54 19.5 86t56.5 32q25 0 57.5-29t46.5-29q32 0 34 55z"/><glyph glyph-name="odieresis" unicode="ö" horiz-adv-x="478" d="M123 571q0 20 13.5 33.5T170 618q19 0 32.5-13.5T216 571q0-19-13.5-32.5T170 525t-33 13.5-14 32.5zm141 0q0 20 13 33.5t32 13.5q20 0 33.5-13.5T356 571q0-19-14-32.5T309 525t-32 13.5-13 32.5zm179-349q0-102-56.5-166.5T239-9 91.5 55.5 35 222t56.5 166.5T239 453t147.5-64.5T443 222zm-76 0q0 74-34.5 119.5T239 387t-93.5-45.5T111 222t34.5-119.5T239 57t93.5 45.5T367 222z"/><glyph glyph-name="divide" unicode="÷" horiz-adv-x="540" d="M73 266v62h394v-62H73zm147 192q0 21 14.5 36t35.5 15 36-15 15-36-15-36-36-15-35.5 15-14.5 36zm0-322q0 21 14.5 36t35.5 15 36-15 15-36-15-36-36-15-35.5 15-14.5 36z"/><glyph glyph-name="oslash" unicode="ø" horiz-adv-x="488" d="M40 1l49 63q-49 61-49 158 0 102 56.5 166.5T244 453q68 0 117-37l42 53 41-29-46-60q50-65 50-158 0-102-56.5-166.5T244-9q-70 0-119 38L81-28zm333 221q0 57-22 99L167 83q31-26 77-26 59 0 94 45.5T373 222zm-258 0q0-58 20-98l184 237q-31 26-75 26-59 0-94-45.5T115 222z"/><glyph glyph-name="ugrave" unicode="ù" horiz-adv-x="487" d="M421 444V0h-76v56q-20-28-54-46.5T216-9q-74 0-114.5 44T61 153v291h76V165q0-49 24-77t73-28q38 0 68.5 23t42.5 60v301h76zm-140 72h-69l-89 134h78z"/><glyph glyph-name="uacute" unicode="ú" horiz-adv-x="487" d="M272 516h-69l80 134h78zm149-72V0h-76v56q-20-28-54-46.5T216-9q-74 0-114.5 44T61 153v291h76V165q0-49 24-77t73-28q38 0 68.5 23t42.5 60v301h76z"/><glyph glyph-name="ucircumflex" unicode="û" horiz-adv-x="487" d="M278 645l92-136h-65l-62 88-62-88h-65l92 136h70zm143-201V0h-76v56q-20-28-54-46.5T216-9q-74 0-114.5 44T61 153v291h76V165q0-49 24-77t73-28q38 0 68.5 23t42.5 60v301h76z"/><glyph glyph-name="udieresis" unicode="ü" horiz-adv-x="487" d="M127 571q0 20 13.5 33.5T174 618q19 0 32.5-13.5T220 571q0-19-13.5-32.5T174 525t-33 13.5-14 32.5zm141 0q0 20 13 33.5t32 13.5q20 0 33.5-13.5T360 571q0-19-14-32.5T313 525t-32 13.5-13 32.5zm153-127V0h-76v56q-20-28-54-46.5T216-9q-74 0-114.5 44T61 153v291h76V165q0-49 24-77t73-28q38 0 68.5 23t42.5 60v301h76z"/><glyph glyph-name="yacute" unicode="ý" horiz-adv-x="455" d="M198-170h-74L191-3 18 444h81L230 94l129 350h78zm59 686h-69l80 134h78z"/><glyph glyph-name="thorn" unicode="þ" horiz-adv-x="502" d="M142 52v-222H67v820h75V392q19 26 52.5 43.5T267 453q94 0 147-66.5T467 222 414 57.5 267-9q-39 0-72.5 17.5T142 52zm0 260V132q17-34 47.5-53.5T256 59q62 0 98.5 45.5T391 222t-36.5 117.5T256 385q-36 0-66.5-19.5T142 312z"/><glyph glyph-name="ydieresis" unicode="ÿ" horiz-adv-x="455" d="M198-170h-74L191-3 18 444h81L230 94l129 350h78zm-87 741q0 20 13.5 33.5T158 618q19 0 32.5-13.5T204 571q0-19-13.5-32.5T158 525t-33 13.5-14 32.5zm141 0q0 20 13 33.5t32 13.5q20 0 33.5-13.5T344 571q0-19-14-32.5T297 525t-32 13.5-13 32.5z"/><glyph glyph-name="Amacron" unicode="Ā" horiz-adv-x="596" d="M261 614h74L575 0h-80l-71 185H171L101 0H21zm36-98L197 254h200zM192 671v61h213v-61H192z"/><glyph glyph-name="amacron" unicode="ā" horiz-adv-x="450" d="M389 0h-72v33q-14-15-47-28T200-8Q130-8 82.5 31T35 134q0 61 49 100t121 39q33 0 65-11t47-25v56q0 43-25.5 69T219 388q-70 0-91-61H54q11 56 56.5 91T220 453q79 0 124-42t45-115V0zm-72 110v46q-10 24-39.5 39.5T213 211q-44 0-75-20t-31-57q0-38 31-58.5T213 55q35 0 64.5 15.5T317 110zM123 530v61h213v-61H123z"/><glyph glyph-name="Abreve" unicode="Ă" horiz-adv-x="596" d="M261 614h74L575 0h-80l-71 185H171L101 0H21zm36-98L197 254h200zm1 150q-52 0-83.5 31.5T183 786h57q0-31 16-47.5t42-16.5q27 0 43 16.5t16 47.5h57q0-58-31-89t-85-31z"/><glyph glyph-name="abreve" unicode="ă" horiz-adv-x="450" d="M389 0h-72v33q-14-15-47-28T200-8Q130-8 82.5 31T35 134q0 61 49 100t121 39q33 0 65-11t47-25v56q0 43-25.5 69T219 388q-70 0-91-61H54q11 56 56.5 91T220 453q79 0 124-42t45-115V0zm-72 110v46q-10 24-39.5 39.5T213 211q-44 0-75-20t-31-57q0-38 31-58.5T213 55q35 0 64.5 15.5T317 110zm-90 390q-52 0-83 33.5T113 628h57q0-34 15-53.5t42-19.5 42 19.5 15 53.5h57q0-61-31-94.5T227 500z"/><glyph glyph-name="Aogonek" unicode="Ą" horiz-adv-x="596" d="M261 614h74L575 0q-33-54-41.5-71.5T525-106q0-26 23-26 14 0 37 15v-50q-26-19-52-19-32 0-49.5 18T466-120q0 18 8 38.5t16 34T519 0h-24l-71 185H171L101 0H21zm36-98L197 254h201z"/><glyph glyph-name="aogonek" unicode="ą" horiz-adv-x="450" d="M316 110v46q-9 24-38.5 39.5T213 211q-44 0-75-20t-31-57q0-38 31-58.5T213 55q35 0 64.5 15.5T316 110zM333 0h-17v33q-15-15-47-28T200-8Q130-8 82.5 31T35 134q0 61 49 100t121 39q32 0 63.5-11t47.5-25v56q0 43-25 69t-72 26q-73 0-92-61H54q11 56 56.5 91T220 453q79 0 124-42t45-115V0q-32-53-40.5-71t-8.5-35q0-26 22-26 16 0 37 15v-50q-24-19-52-19-32 0-49 17.5T281-120q0 18 7.5 38.5t16 34.5T333 0z"/><glyph glyph-name="Cacute" unicode="Ć" horiz-adv-x="586" d="M37 307q0 141 78.5 228.5T312 623q95 0 157.5-51T551 434h-78q-42 118-161 118-88 0-142-67.5T116 307q0-109 54-177t142-68q120 0 161 119h78q-19-88-81.5-139T312-9Q194-9 115.5 78.5T37 307zm312 361h-76l80 117h87z"/><glyph glyph-name="cacute" unicode="ć" horiz-adv-x="446" d="M270 516h-69l80 134h78zM35 222q0 103 56 167t146 64q73 0 119.5-39T415 310h-77q-8 36-34.5 56.5T237 387q-57 0-91.5-46T111 222t34.5-119T237 57q40 0 66.5 20.5T338 134h77q-12-65-58.5-104T237-9Q147-9 91 55T35 222z"/><glyph glyph-name="Ccircumflex" unicode="Ĉ" horiz-adv-x="586" d="M37 307q0 141 78.5 228.5T312 623q95 0 157.5-51T551 434h-78q-42 118-161 118-88 0-142-67.5T116 307q0-109 54-177t142-68q120 0 161 119h78q-19-88-81.5-139T312-9Q194-9 115.5 78.5T37 307zm316 484l92-122h-68l-59 71-59-71h-68l92 122h70z"/><glyph glyph-name="ccircumflex" unicode="ĉ" horiz-adv-x="446" d="M276 645l92-136h-65l-62 88-62-88h-65l92 136h70zM35 222q0 103 56 167t146 64q73 0 119.5-39T415 310h-77q-8 36-34.5 56.5T237 387q-57 0-91.5-46T111 222t34.5-119T237 57q40 0 66.5 20.5T338 134h77q-12-65-58.5-104T237-9Q147-9 91 55T35 222z"/><glyph glyph-name="Cdotaccent" unicode="Ċ" horiz-adv-x="586" d="M363 721q0-19-14.5-33.5T315 673t-33.5 14.5T267 721q0 20 14 34.5t34 14.5 34-14.5 14-34.5zM37 307q0 141 78.5 228.5T312 623q95 0 157.5-51T551 434h-78q-42 118-161 118-88 0-142-67.5T116 307q0-109 54-177t142-68q120 0 161 119h78q-19-88-81.5-139T312-9Q194-9 115.5 78.5T37 307z"/><glyph glyph-name="cdotaccent" unicode="ċ" horiz-adv-x="446" d="M35 222q0 103 56 167t146 64q73 0 119.5-39T415 310h-77q-8 36-34.5 56.5T237 387q-57 0-91.5-46T111 222t34.5-119T237 57q40 0 66.5 20.5T338 134h77q-12-65-58.5-104T237-9Q147-9 91 55T35 222zm254 356q0-20-14.5-34T241 530t-33.5 14-14.5 34 14 34 34 14 34-14 14-34z"/><glyph glyph-name="Ccaron" unicode="Č" horiz-adv-x="586" d="M280 666l-92 121h68l59-71 59 71h68l-92-121h-70zM37 307q0 141 78.5 228.5T312 623q95 0 157.5-51T551 434h-78q-42 118-161 118-88 0-142-67.5T116 307q0-109 54-177t142-68q120 0 161 119h78q-19-88-81.5-139T312-9Q194-9 115.5 78.5T37 307z"/><glyph glyph-name="ccaron" unicode="č" horiz-adv-x="446" d="M368 646l-92-136h-70l-92 136h65l62-87 62 87h65zM35 222q0 103 56 167t146 64q73 0 119.5-39T415 310h-77q-8 36-34.5 56.5T237 387q-57 0-91.5-46T111 222t34.5-119T237 57q40 0 66.5 20.5T338 134h77q-12-65-58.5-104T237-9Q147-9 91 55T35 222z"/><glyph glyph-name="Dcaron" unicode="Ď" horiz-adv-x="605" d="M245 666l-92 121h68l59-71 59 71h68l-92-121h-70zM152 71h117q104 0 162.5 63.5T490 307t-59 173-162 64H152V71zM73 0v614h197q135 0 216.5-83.5T568 307 486.5 83.5 270 0H73z"/><glyph glyph-name="dcaron" unicode="ď" horiz-adv-x="502" d="M549 486h-60l33 164h60zM360 0v52q-18-26-52-43.5T235-9Q141-9 88 57T35 222q0 98 53 164.5T235 453q39 0 73-17.5t52-43.5v258h76V0h-76zm0 132v180q-17 34-47.5 53.5T246 385q-62 0-98.5-45.5T111 222t36.5-117.5T246 59q36 0 66.5 19.5T360 132z"/><glyph glyph-name="Dcroat" unicode="Đ" horiz-adv-x="620" d="M32 284v67h56v263h197q135 0 216.5-83.5T583 307 501.5 83.5 285 0H88v284H32zM167 71h117q104 0 162.5 63.5T505 307t-59 173-162 64H167V351h123v-67H167V71z"/><glyph glyph-name="dcroat" unicode="đ" horiz-adv-x="502" d="M252 511v54h108v85h76v-85h56v-54h-56V0h-76v52q-18-26-52-43.5T235-9Q141-9 88 57T35 222q0 98 53 164.5T235 453q39 0 73-17.5t52-43.5v119H252zm108-379v180q-17 34-47.5 53.5T246 385q-62 0-98.5-45.5T111 222t36.5-117.5T246 59q36 0 66.5 19.5T360 132z"/><glyph glyph-name="Emacron" unicode="Ē" horiz-adv-x="515" d="M167 671v61h213v-61H167zm-94-57h391v-70H151V350h284v-70H151V71h313V0H73v614z"/><glyph glyph-name="emacron" unicode="ē" horiz-adv-x="457" d="M135 530v61h213v-61H135zm212-397h71q-12-65-59-103.5T239-9Q148-9 91.5 54.5T35 221q0 101 56 166.5T237 453q89 0 138-59.5T424 235v-27H110q1-70 36.5-111.5T239 55q42 0 70.5 20.5T347 133zM238 389q-50 0-84-33t-42-91h236q-1 53-29 88.5T238 389z"/><glyph glyph-name="Ebreve" unicode="Ĕ" horiz-adv-x="515" d="M273 666q-52 0-83.5 31.5T158 786h57q0-31 16-47.5t42-16.5q27 0 43 16.5t16 47.5h57q0-58-31.5-89T273 666zM73 614h391v-70H151V350h284v-70H151V71h313V0H73v614z"/><glyph glyph-name="ebreve" unicode="ĕ" horiz-adv-x="457" d="M347 133h71q-12-65-59-103.5T239-9Q148-9 91.5 54.5T35 221q0 101 56 166.5T237 453q89 0 138-59.5T424 235v-27H110q1-70 36.5-111.5T239 55q42 0 70.5 20.5T347 133zM238 389q-50 0-84-33t-42-91h236q-1 53-29 88.5T238 389zm3 111q-52 0-83 33.5T127 628h57q0-34 15-53.5t42-19.5 42 19.5 15 53.5h57q0-61-31-94.5T241 500z"/><glyph glyph-name="Edotaccent" unicode="Ė" horiz-adv-x="515" d="M321 721q0-19-14.5-33.5T273 673t-33.5 14.5T225 721q0 20 14 34.5t34 14.5 34-14.5 14-34.5zM73 614h391v-70H151V350h284v-70H151V71h313V0H73v614z"/><glyph glyph-name="edotaccent" unicode="ė" horiz-adv-x="457" d="M347 133h71q-12-65-59-103.5T239-9Q148-9 91.5 54.5T35 221q0 101 56 166.5T237 453q89 0 138-59.5T424 235v-27H110q1-70 36.5-111.5T239 55q42 0 70.5 20.5T347 133zM238 389q-50 0-84-33t-42-91h236q-1 53-29 88.5T238 389zm51 189q0-20-14.5-34T241 530t-33.5 14-14.5 34 14 34 34 14 34-14 14-34z"/><glyph glyph-name="Eogonek" unicode="Ę" horiz-adv-x="515" d="M73 614h391v-70H151V350h284v-70H151V71h313V0h-33q-30-49-39.5-69t-9.5-37q0-26 22-26 16 0 37 15v-50q-24-19-52-19-32 0-49 17.5T323-120q0 18 7.5 38.5t16 34.5T375 0H73v614z"/><glyph glyph-name="eogonek" unicode="ę" horiz-adv-x="457" d="M238 389q-50 0-84-33t-42-91h236q-1 53-29 88.5T238 389zM280-3q-20-6-41-6-91 0-147.5 63.5T35 221q0 101 56 166.5T237 453q89 0 138-59.5T424 235v-27H110q1-70 36.5-111.5T239 55q41 0 70 20.5t38 57.5h71q-10-56-60-108-75-77-75-128 0-29 24-29 16 0 37 15v-50q-24-19-52-19-32 0-50 18.5T224-118q0 49 56 115z"/><glyph glyph-name="Ecaron" unicode="Ě" horiz-adv-x="515" d="M242 666l-92 121h68l59-71 59 71h68l-92-121h-70zM73 614h391v-70H151V350h284v-70H151V71h313V0H73v614z"/><glyph glyph-name="ecaron" unicode="ě" horiz-adv-x="457" d="M368 646l-92-136h-70l-92 136h65l62-87 62 87h65zm-21-513h71q-12-65-59-103.5T239-9Q148-9 91.5 54.5T35 221q0 101 56 166.5T237 453q89 0 138-59.5T424 235v-27H110q1-70 36.5-111.5T239 55q42 0 70.5 20.5T347 133zM238 389q-50 0-84-33t-42-91h236q-1 53-29 88.5T238 389z"/><glyph glyph-name="Gcircumflex" unicode="Ĝ" horiz-adv-x="610" d="M353 791l92-122h-68l-59 71-59-71h-68l92 122h70zm145-556H351v68h222v-42q0-122-70.5-196T319-9Q197-9 117 78T37 307q0 141 80 228.5T317 623q96 0 159.5-51T559 434h-79q-43 118-163 118-90 0-145.5-67.5T116 307t56-178 147-68q79 0 125.5 46.5T498 235z"/><glyph glyph-name="gcircumflex" unicode="ĝ" horiz-adv-x="501" d="M294 645l92-136h-65l-62 88-62-88h-65l92 136h70zm64-615v33q-18-25-51.5-42.5T234 3Q141 3 88 69T35 228q0 94 53 159.5T234 453q39 0 72.5-17t51.5-42v50h76V35q0-106-54.5-160.5T236-180q-80 0-129.5 39T46-33h74q19-83 116-83 122 0 122 146zm0 110v177q-38 69-113 69-62 0-97.5-44T112 228t35.5-113.5T245 71q75 0 113 69z"/><glyph glyph-name="Gbreve" unicode="Ğ" horiz-adv-x="610" d="M319 666q-52 0-83.5 31.5T204 786h57q0-31 16-47.5t42-16.5q27 0 43 16.5t16 47.5h57q0-58-31.5-89T319 666zm179-431H351v68h222v-42q0-122-70.5-196T319-9Q197-9 117 78T37 307q0 141 80 228.5T317 623q96 0 159.5-51T559 434h-79q-43 118-163 118-90 0-145.5-67.5T116 307t56-178 147-68q79 0 125.5 46.5T498 235z"/><glyph glyph-name="gbreve" unicode="ğ" horiz-adv-x="501" d="M358 30v33q-18-25-51.5-42.5T234 3Q141 3 88 69T35 228q0 94 53 159.5T234 453q39 0 72.5-17t51.5-42v50h76V35q0-106-54.5-160.5T236-180q-80 0-129.5 39T46-33h74q19-83 116-83 122 0 122 146zm0 110v177q-38 69-113 69-62 0-97.5-44T112 228t35.5-113.5T245 71q75 0 113 69zm-99 360q-52 0-83 33.5T145 628h57q0-34 15-53.5t42-19.5 42 19.5 15 53.5h57q0-61-31-94.5T259 500z"/><glyph glyph-name="Gdotaccent" unicode="Ġ" horiz-adv-x="610" d="M368 721q0-19-14-33.5T320 673t-34 14.5-14 33.5q0 20 14 34.5t34 14.5 34-14.5 14-34.5zm130-486H351v68h222v-42q0-122-70.5-196T319-9Q197-9 117 78T37 307q0 141 80 228.5T317 623q96 0 159.5-51T559 434h-79q-43 118-163 118-90 0-145.5-67.5T116 307t56-178 147-68q79 0 125.5 46.5T498 235z"/><glyph glyph-name="gdotaccent" unicode="ġ" horiz-adv-x="501" d="M307 578q0-20-14.5-34T259 530t-33.5 14-14.5 34 14 34 34 14 34-14 14-34zm51-548v33q-18-25-51.5-42.5T234 3Q141 3 88 69T35 228q0 94 53 159.5T234 453q39 0 72.5-17t51.5-42v50h76V35q0-106-54.5-160.5T236-180q-80 0-129.5 39T46-33h74q19-83 116-83 122 0 122 146zm0 110v177q-38 69-113 69-62 0-97.5-44T112 228t35.5-113.5T245 71q75 0 113 69z"/><glyph glyph-name="Gcommaaccent" unicode="Ģ" horiz-adv-x="610" d="M271-201l39 64q-18 2-29 14t-11 30q0 21 14.5 34.5T320-45t35-14 14-36q0-23-22-57l-29-49h-47zm227 436H351v68h222v-42q0-122-70.5-196T319-9Q197-9 117 78T37 307q0 141 80 228.5T317 623q96 0 159.5-51T559 434h-79q-43 118-163 118-90 0-145.5-67.5T116 307t56-178 147-68q79 0 125.5 46.5T498 235z"/><glyph glyph-name="gcommaaccent" unicode="ģ" horiz-adv-x="501" d="M307 680l-40-65q18-2 29.5-14.5T308 569q0-21-14.5-34.5T257 521q-21 0-35.5 14T207 572q0 26 22 59l29 49h49zm51-650v33q-18-25-51.5-42.5T234 3Q141 3 88 69T35 228q0 94 53 159.5T234 453q39 0 72.5-17t51.5-42v50h76V35q0-106-54.5-160.5T236-180q-80 0-129.5 39T46-33h74q19-83 116-83 122 0 122 146zm0 110v177q-38 69-113 69-62 0-97.5-44T112 228t35.5-113.5T245 71q75 0 113 69z"/><glyph glyph-name="Hcircumflex" unicode="Ĥ" horiz-adv-x="651" d="M499 614h79V0h-79v280H152V0H73v614h79V351h347v263zM360 791l92-122h-68l-59 71-59-71h-68l92 122h70z"/><glyph glyph-name="hcircumflex" unicode="ĥ" horiz-adv-x="489" d="M67 0v650h75V388q21 28 55.5 46.5T273 453q74 0 115-44t41-118V0h-76v279q0 48-24.5 76.5T255 384q-39 0-70-23.5T142 301V0H67zm215 804l92-122h-68l-59 71-59-71h-68l92 122h70z"/><glyph glyph-name="Hbar" unicode="Ħ" horiz-adv-x="679" d="M32 430v66h55v118h79V496h347v118h79V496h55v-66h-55V0h-79v244H166V0H87v430H32zm134-120h347v120H166V310z"/><glyph glyph-name="hbar" unicode="ħ" horiz-adv-x="489" d="M10 511v54h57v85h75v-85h108v-54H142V388q21 28 55.5 46.5T273 453q74 0 115-44t41-118V0h-76v279q0 48-24.5 76.5T255 384q-39 0-70-23.5T142 301V0H67v511H10z"/><glyph glyph-name="Itilde" unicode="Ĩ" horiz-adv-x="225" d="M152 614V0H73v614h79zm47 170h48q0-55-19.5-87T171 665q-26 0-60 28t-50 28q-34 0-34-53h-49q0 55 19.5 87T54 787q27 0 60.5-28t50.5-28q32 0 34 53z"/><glyph glyph-name="itilde" unicode="ĩ" horiz-adv-x="209" d="M168 633h46q0-54-17-86t-47-32q-21 0-47.5 28T66 571q-25 0-27-53H-7q0 54 17 86t47 32q21 0 48-28t37-28q24 0 26 53zm-26-189V0H67v444h75z"/><glyph glyph-name="Imacron" unicode="Ī" horiz-adv-x="225" d="M152 614V0H73v614h79zM6 671v61h213v-61H6z"/><glyph glyph-name="imacron" unicode="ī" horiz-adv-x="209" d="M142 444V0H67v444h75zM16 530v61h177v-61H16z"/><glyph glyph-name="Ibreve" unicode="Ĭ" horiz-adv-x="225" d="M152 614V0H73v614h79zm-40 52q-52 0-83.5 31.5T-3 786h57q0-31 16-47.5t42-16.5q27 0 43 16.5t16 47.5h57q0-58-31-89t-85-31z"/><glyph glyph-name="ibreve" unicode="ĭ" horiz-adv-x="209" d="M105 500q-46 0-74 33.5T3 628h55q0-73 47-73 46 0 46 73h55q0-61-27.5-94.5T105 500zm37-56V0H67v444h75z"/><glyph glyph-name="Iogonek" unicode="Į" horiz-adv-x="225" d="M152 614V0q-32-52-41-70.5t-9-35.5q0-26 23-26 16 0 37 15v-50q-24-19-52-19-32 0-49 17.5T44-120q0 18 7.5 38.5t16 34.5T96 0H73v614h79z"/><glyph glyph-name="iogonek" unicode="į" horiz-adv-x="209" d="M142 444V0q-32-53-40.5-71T93-106q0-26 23-26 14 0 37 15v-50q-26-19-52-19-32 0-49.5 17.5T34-120q0 18 7.5 38.5t16 34.5T86 0H67v444h75zm11 134q0-20-14.5-34T104 530t-34 14-14 34 14 34 34 14 34.5-14 14.5-34z"/><glyph glyph-name="Idotaccent" unicode="İ" horiz-adv-x="225" d="M152 614V0H73v614h79zm8 107q0-19-14-33.5T112 673t-34 14.5T64 721q0 20 14 34.5t34 14.5 34-14.5 14-34.5z"/><glyph glyph-name="dotlessi" unicode="ı" horiz-adv-x="209" d="M142 444V0H67v444h75z"/><glyph glyph-name="IJ" unicode="Ĳ" horiz-adv-x="668" d="M206 174h82q6-52 36.5-81.5T406 63q122 0 122 141v410h79V204q0-104-54-158.5T408-9q-89 0-142 50t-60 133zm-54 440V0H73v614h79z"/><glyph glyph-name="ij" unicode="ĳ" horiz-adv-x="416" d="M142 444V0H67v444h75zm11 134q0-20-14.5-34T104 530t-34 14-14 34 14 34 34 14 34.5-14 14.5-34zm198-134V-51q0-62-33.5-95T222-179q-21 0-32 4v64q18-3 26-3 60 0 60 68v490h75zm11 134q0-20-14.5-34T313 530q-19 0-33.5 14T265 578t14 34 34 14 34.5-14 14.5-34z"/><glyph glyph-name="Jcircumflex" unicode="Ĵ" horiz-adv-x="479" d="M17 174h81q6-52 37-81.5T217 63q122 0 122 141v410h79V204q0-104-54.5-158.5T218-9Q129-9 76 41T17 174zm397 617l92-122h-68l-59 71-59-71h-68l92 122h70z"/><glyph glyph-name="jcircumflex" unicode="ĵ" horiz-adv-x="207" d="M139 645l74-136h-64l-45 85-45-85H-4l74 136h69zm3-201V-51q0-62-33.5-95T13-179q-21 0-32 4v64q18-3 26-3 60 0 60 68v490h75z"/><glyph glyph-name="Kcommaaccent" unicode="Ķ" horiz-adv-x="564" d="M216-201l39 64q-18 2-29 14t-11 30q0 21 14.5 34.5T265-45t35-14 14-36q0-23-22-57l-29-49h-47zm-64 815V307l286 307h100L275 334 547 0h-98L218 280l-66-71V0H73v614h79z"/><glyph glyph-name="kcommaaccent" unicode="ķ" horiz-adv-x="464" d="M179-201l39 64q-18 2-29 14t-11 30q0 21 14.5 34.5T228-45t35-14 14-36q0-23-22-57l-29-49h-47zM359 0L190 205l-48-46V0H67v650h75V247l203 197h99L244 252 451 0h-92z"/><glyph glyph-name="kgreenlandic" unicode="ĸ" horiz-adv-x="464" d="M359 0L190 205l-48-46V0H67v444h75V247l203 197h99L244 252 451 0h-92z"/><glyph glyph-name="Lacute" unicode="Ĺ" horiz-adv-x="504" d="M156 668H80l80 117h87zM73 0v614h79V71h313V0H73z"/><glyph glyph-name="lacute" unicode="ĺ" horiz-adv-x="209" d="M142 695H66l80 117h87zm0-45V0H67v650h75z"/><glyph glyph-name="Lcommaaccent" unicode="Ļ" horiz-adv-x="504" d="M231-201l39 64q-18 2-29 14t-11 30q0 21 14.5 34.5T280-45t35-14 14-36q0-23-22-57l-29-49h-47zM73 0v614h79V71h313V0H73z"/><glyph glyph-name="lcommaaccent" unicode="ļ" horiz-adv-x="209" d="M56-201l39 64q-18 2-29 14T55-93q0 21 14.5 34.5T105-45t35-14 14-36q0-23-22-57l-29-49H56zm86 851V0H67v650h75z"/><glyph glyph-name="Lcaron" unicode="Ľ" horiz-adv-x="504" d="M321 450h-60l33 164h60zM73 0v614h79V71h313V0H73z"/><glyph glyph-name="lcaron" unicode="ľ" horiz-adv-x="209" d="M256 486h-60l33 164h60zM142 650V0H67v650h75z"/><glyph glyph-name="Ldot" unicode="Ŀ" horiz-adv-x="504" d="M73 0v614h79V71h313V0H73zm339 307q0-19-14-33.5T364 259t-34 14.5-14 33.5q0 20 14 34t34 14 34-14 14-34z"/><glyph glyph-name="ldot" unicode="ŀ" horiz-adv-x="332" d="M142 650V0H67v650h75zm175-325q0-19-14.5-33.5T269 277t-33.5 14.5T221 325q0 20 14 34t34 14 34-14 14-34z"/><glyph glyph-name="Lslash" unicode="Ł" horiz-adv-x="523" d="M30 226v73l62 25v290h79V354l154 62v-72l-154-63V71h313V0H92v251z"/><glyph glyph-name="lslash" unicode="ł" horiz-adv-x="246" d="M161 650V414l60 39v-68l-60-39V0H86v310l-56-35v67l56 36v272h75z"/><glyph glyph-name="Nacute" unicode="Ń" horiz-adv-x="623" d="M343 668h-76l80 117h87zm207-54V0h-58L149 488V0H73v614h75l327-467v467h75z"/><glyph glyph-name="nacute" unicode="ń" horiz-adv-x="489" d="M280 516h-69l80 134h78zM67 0v444h75v-56q21 28 55.5 46.5T273 453q74 0 115-44t41-118V0h-76v279q0 48-24.5 76.5T255 384q-39 0-70-23.5T142 301V0H67z"/><glyph glyph-name="Ncommaaccent" unicode="Ņ" horiz-adv-x="623" d="M266-201l39 64q-18 2-29 14t-11 30q0 21 14.5 34.5T315-45t35-14 14-36q0-23-22-57l-29-49h-47zm284 815V0h-58L149 488V0H73v614h75l327-467v467h75z"/><glyph glyph-name="ncommaaccent" unicode="ņ" horiz-adv-x="489" d="M205-201l39 64q-18 2-29 14t-11 30q0 21 14.5 34.5T254-45t35-14 14-36q0-23-22-57l-29-49h-47zM67 0v444h75v-56q21 28 55.5 46.5T273 453q74 0 115-44t41-118V0h-76v279q0 48-24.5 76.5T255 384q-39 0-70-23.5T142 301V0H67z"/><glyph glyph-name="Ncaron" unicode="Ň" horiz-adv-x="623" d="M277 666l-92 121h68l59-71 59 71h68l-92-121h-70zm273-52V0h-58L149 488V0H73v614h75l327-467v467h75z"/><glyph glyph-name="ncaron" unicode="ň" horiz-adv-x="489" d="M378 646l-92-136h-70l-92 136h65l62-87 62 87h65zM67 0v444h75v-56q21 28 55.5 46.5T273 453q74 0 115-44t41-118V0h-76v279q0 48-24.5 76.5T255 384q-39 0-70-23.5T142 301V0H67z"/><glyph glyph-name="Eng" unicode="Ŋ" horiz-adv-x="623" d="M266-159v78q50-33 102-33 55 0 80.5 32T475 25L149 488V0H73v614h75l327-467v467h75V27q0-214-178-214-54 0-106 28z"/><glyph glyph-name="eng" unicode="ŋ" horiz-adv-x="489" d="M353-46v325q0 48-24.5 76.5T255 384q-39 0-70-23.5T142 301V0H67v444h75v-56q21 28 55.5 46.5T273 453q74 0 115-44t41-118V-51q0-62-33.5-95T300-179q-23 0-32 4v64q18-3 25-3 60 0 60 68z"/><glyph glyph-name="Omacron" unicode="Ō" horiz-adv-x="629" d="M208 671v61h213v-61H208zm384-364q0-139-78-227.5T314-9Q193-9 115 79.5T37 307t78 227.5T314 623q122 0 200-88.5T592 307zm-79 0q0 108-55 176.5T314 552q-88 0-143-68.5T116 307t55-176.5T314 62q89 0 144 68.5T513 307z"/><glyph glyph-name="omacron" unicode="ō" horiz-adv-x="478" d="M133 530v61h213v-61H133zm310-308q0-102-56.5-166.5T239-9 91.5 55.5 35 222t56.5 166.5T239 453t147.5-64.5T443 222zm-76 0q0 74-34.5 119.5T239 387t-93.5-45.5T111 222t34.5-119.5T239 57t93.5 45.5T367 222z"/><glyph glyph-name="Obreve" unicode="Ŏ" horiz-adv-x="629" d="M314 666q-52 0-83.5 31.5T199 786h57q0-31 16-47.5t42-16.5q27 0 43 16.5t16 47.5h57q0-58-31-89t-85-31zm278-359q0-139-78-227.5T314-9Q193-9 115 79.5T37 307t78 227.5T314 623q122 0 200-88.5T592 307zm-79 0q0 108-55 176.5T314 552q-88 0-143-68.5T116 307t55-176.5T314 62q89 0 144 68.5T513 307z"/><glyph glyph-name="obreve" unicode="ŏ" horiz-adv-x="478" d="M443 222q0-102-56.5-166.5T239-9 91.5 55.5 35 222t56.5 166.5T239 453t147.5-64.5T443 222zm-76 0q0 74-34.5 119.5T239 387t-93.5-45.5T111 222t34.5-119.5T239 57t93.5 45.5T367 222zM239 500q-52 0-83 33.5T125 628h57q0-34 15-53.5t42-19.5 42 19.5 15 53.5h57q0-61-31-94.5T239 500z"/><glyph glyph-name="Ohungarumlaut" unicode="Ő" horiz-adv-x="629" d="M592 307q0-139-78-227.5T314-9Q193-9 115 79.5T37 307t78 227.5T314 623q122 0 200-88.5T592 307zm-79 0q0 108-55 176.5T314 552q-88 0-143-68.5T116 307t55-176.5T314 62q89 0 144 68.5T513 307zM290 668h-65l67 117h66zm123 0h-65l66 117h67z"/><glyph glyph-name="ohungarumlaut" unicode="ő" horiz-adv-x="478" d="M207 516h-63l66 134h65zm119 0h-63l67 134h64zm117-294q0-102-56.5-166.5T239-9 91.5 55.5 35 222t56.5 166.5T239 453t147.5-64.5T443 222zm-76 0q0 74-34.5 119.5T239 387t-93.5-45.5T111 222t34.5-119.5T239 57t93.5 45.5T367 222z"/><glyph glyph-name="OE" unicode="Œ" horiz-adv-x="830" d="M780 614v-70H482V350h268v-70H482V71h298V0H335Q200 0 118.5 83.5T37 307t81.5 223.5T335 614h445zM337 71h68v473h-68q-104 0-162.5-64T116 307t58.5-172.5T337 71z"/><glyph glyph-name="oe" unicode="œ" horiz-adv-x="787" d="M568-9Q458-9 402 82 348-9 239-9 148-9 91.5 55.5T35 222t56.5 166.5T239 453q109 0 163-93 57 93 165 93 89 0 138-59.5T754 235v-27H439q1-70 37-111.5T568 55q42 0 71 20.5t38 57.5h71q-12-65-59-103.5T568-9zM367 222q0 74-34.5 119.5T239 387t-93.5-45.5T111 222t34.5-119.5T239 57t93.5 45.5T367 222zm200 167q-50 0-83.5-33T442 265h236q-2 53-30 88.5T567 389z"/><glyph glyph-name="Racute" unicode="Ŕ" horiz-adv-x="552" d="M261 260H152V0H73v614h228q94 0 147.5-46T502 436q0-75-41-119t-115-54L527 0h-90zM152 545V327h147q60 0 92.5 29t32.5 80-32.5 80-92.5 29H152zm151 123h-76l80 117h87z"/><glyph glyph-name="racute" unicode="ŕ" horiz-adv-x="321" d="M210 516h-69l80 134h78zm85-70v-77q-18 12-50 12-36 0-64-22t-39-61V0H67v444h75v-58q15 29 44.5 48t65.5 19q29 0 43-7z"/><glyph glyph-name="Rcommaaccent" unicode="Ŗ" horiz-adv-x="552" d="M261 260H152V0H73v614h228q94 0 147.5-46T502 436q0-75-41-119t-115-54L527 0h-90zM152 545V327h147q60 0 92.5 29t32.5 80-32.5 80-92.5 29H152zm73-746l39 64q-18 2-29 14t-11 30q0 21 14.5 34.5T274-45t35-14 14-36q0-23-22-57l-29-49h-47z"/><glyph glyph-name="rcommaaccent" unicode="ŗ" horiz-adv-x="321" d="M54-201l39 64q-18 2-29 14T53-93q0 21 14.5 34.5T103-45t35-14 14-36q0-23-22-57l-29-49H54zm241 647v-77q-18 12-50 12-36 0-64-22t-39-61V0H67v444h75v-58q15 29 44.5 48t65.5 19q29 0 43-7z"/><glyph glyph-name="Rcaron" unicode="Ř" horiz-adv-x="552" d="M261 260H152V0H73v614h228q94 0 147.5-46T502 436q0-75-41-119t-115-54L527 0h-90zM152 545V327h147q60 0 92.5 29t32.5 80-32.5 80-92.5 29H152zm84 121l-92 121h68l59-71 59 71h68l-92-121h-70z"/><glyph glyph-name="rcaron" unicode="ř" horiz-adv-x="321" d="M308 646l-92-136h-70L54 646h65l62-87 62 87h65zm-13-200v-77q-18 12-50 12-36 0-64-22t-39-61V0H67v444h75v-58q15 29 44.5 48t65.5 19q29 0 43-7z"/><glyph glyph-name="Sacute" unicode="Ś" horiz-adv-x="509" d="M23 160h80Q138 58 259 58q61 0 98.5 28.5T395 165q0 37-23 60.5T297 262l-110 29Q40 329 40 449q0 77 57 125.5T242 623q93 0 150-43.5T467 461h-79q-33 95-146 95-56 0-91.5-27.5T115 455q0-38 24-59.5t74-34.5l105-27q153-39 153-165 0-82-59.5-130T259-9 103 35.5 23 160zm256 508h-76l80 117h87z"/><glyph glyph-name="sacute" unicode="ś" horiz-adv-x="414" d="M236 516h-69l80 134h78zM30 122h78q21-68 105-68 41 0 66 16.5t25 49.5q0 45-66 62l-88 23Q43 232 43 322q0 58 45 94.5T202 453q72 0 116-33t56-93h-75q-20 63-98 63-35 0-60-16.5T116 326q0-22 14.5-34.5T178 270l86-21q113-30 113-124 0-62-46-98T212-9 89.5 26 30 122z"/><glyph glyph-name="Scircumflex" unicode="Ŝ" horiz-adv-x="509" d="M23 160h80Q138 58 259 58q61 0 98.5 28.5T395 165q0 37-23 60.5T297 262l-110 29Q40 329 40 449q0 77 57 125.5T242 623q93 0 150-43.5T467 461h-79q-33 95-146 95-56 0-91.5-27.5T115 455q0-38 24-59.5t74-34.5l105-27q153-39 153-165 0-82-59.5-130T259-9 103 35.5 23 160zm263 631l92-122h-68l-59 71-59-71h-68l92 122h70z"/><glyph glyph-name="scircumflex" unicode="ŝ" horiz-adv-x="414" d="M242 645l92-136h-65l-62 88-62-88H80l92 136h70zM30 122h78q21-68 105-68 41 0 66 16.5t25 49.5q0 45-66 62l-88 23Q43 232 43 322q0 58 45 94.5T202 453q72 0 116-33t56-93h-75q-20 63-98 63-35 0-60-16.5T116 326q0-22 14.5-34.5T178 270l86-21q113-30 113-124 0-62-46-98T212-9 89.5 26 30 122z"/><glyph glyph-name="Scedilla" unicode="Ş" horiz-adv-x="509" d="M23 160h80Q138 58 259 58q61 0 98.5 28.5T395 165q0 37-23 60.5T297 262l-110 29Q40 329 40 449q0 77 57 125.5T242 623q93 0 150-43.5T467 461h-79q-33 95-146 95-56 0-91.5-27.5T115 455q0-38 24-59.5t74-34.5l105-27q153-39 153-165 0-82-59.5-130T259-9 103 35.5 23 160zm196-343h-71l66 132h74z"/><glyph glyph-name="scedilla" unicode="ş" horiz-adv-x="414" d="M30 122h78q21-68 105-68 41 0 66 16.5t25 49.5q0 45-66 62l-88 23Q43 232 43 322q0 58 45 94.5T202 453q72 0 116-33t56-93h-75q-20 63-98 63-35 0-60-16.5T116 326q0-22 14.5-34.5T178 270l86-21q113-30 113-124 0-62-46-98T212-9 89.5 26 30 122zm149-305h-71l66 132h74z"/><glyph glyph-name="Scaron" unicode="Š" horiz-adv-x="509" d="M216 666l-92 121h68l59-71 59 71h68l-92-121h-70zM23 160h80Q138 58 259 58q61 0 98.5 28.5T395 165q0 37-23 60.5T297 262l-110 29Q40 329 40 449q0 77 57 125.5T242 623q93 0 150-43.5T467 461h-79q-33 95-146 95-56 0-91.5-27.5T115 455q0-38 24-59.5t74-34.5l105-27q153-39 153-165 0-82-59.5-130T259-9 103 35.5 23 160z"/><glyph glyph-name="scaron" unicode="š" horiz-adv-x="414" d="M334 646l-92-136h-70L80 646h65l62-87 62 87h65zM30 122h78q21-68 105-68 41 0 66 16.5t25 49.5q0 45-66 62l-88 23Q43 232 43 322q0 58 45 94.5T202 453q72 0 116-33t56-93h-75q-20 63-98 63-35 0-60-16.5T116 326q0-22 14.5-34.5T178 270l86-21q113-30 113-124 0-62-46-98T212-9 89.5 26 30 122z"/><glyph glyph-name="Tcedilla" unicode="Ţ" horiz-adv-x="567" d="M238-201l39 64q-18 2-29 14t-11 30q0 21 14.5 34.5T287-45t35-14 14-36q0-23-22-57l-29-49h-47zM30 544v70h507v-70H323V0h-79v544H30z"/><glyph glyph-name="tcedilla" unicode="ţ" horiz-adv-x="317" d="M88 112v268H16v64h72v117h75V444h107v-64H163V120q0-62 59-62 31 0 58 18V6Q252-9 210-9q-56 0-89 30.5T88 112zm51-313l39 64q-18 2-29 14t-11 30q0 21 14.5 34.5T188-45t35-14 14-36q0-23-22-57l-29-49h-47z"/><glyph glyph-name="Tcaron" unicode="Ť" horiz-adv-x="567" d="M249 666l-92 121h68l59-71 59 71h68l-92-121h-70zM30 544v70h507v-70H323V0h-79v544H30z"/><glyph glyph-name="tcaron" unicode="ť" horiz-adv-x="317" d="M88 112v268H16v64h72v117h75V444h107v-64H163V120q0-62 59-62 31 0 58 18V6Q252-9 210-9q-56 0-89 30.5T88 112zm188 384h-60l33 164h60z"/><glyph glyph-name="Tbar" unicode="Ŧ" horiz-adv-x="567" d="M30 544v70h507v-70H323V351h113v-67H323V0h-79v284H131v67h113v193H30z"/><glyph glyph-name="tbar" unicode="ŧ" horiz-adv-x="321" d="M29 219v61h63v100H20v64h72v117h75V444h107v-64H167V280h91v-61h-91v-99q0-62 59-62 31 0 58 18V6Q256-9 214-9q-57 0-89.5 30.5T92 112v107H29z"/><glyph glyph-name="Utilde" unicode="Ũ" horiz-adv-x="607" d="M390 784h48q0-55-19.5-87T362 665q-26 0-60 28t-50 28q-34 0-34-53h-49q0 55 19.5 87t56.5 32q27 0 60.5-28t50.5-28q32 0 34 53zM303-9Q195-9 129 56T63 244v370h78V253q0-96 43-144t119-48 119 48 43 144v361h79V243q0-122-66-187T303-9z"/><glyph glyph-name="utilde" unicode="ũ" horiz-adv-x="487" d="M421 444V0h-76v56q-20-28-54-46.5T216-9q-74 0-114.5 44T61 153v291h76V165q0-49 24-77t73-28q38 0 68.5 23t42.5 60v301h76zm-94 189h48q0-54-19.5-86T299 515q-25 0-57.5 29T195 573q-34 0-34-55h-48q0 54 19.5 86t56.5 32q25 0 57.5-29t46.5-29q32 0 34 55z"/><glyph glyph-name="Umacron" unicode="Ū" horiz-adv-x="607" d="M197 671v61h213v-61H197zM303-9Q195-9 129 56T63 244v370h78V253q0-96 43-144t119-48 119 48 43 144v361h79V243q0-122-66-187T303-9z"/><glyph glyph-name="umacron" unicode="ū" horiz-adv-x="487" d="M421 444V0h-76v56q-20-28-54-46.5T216-9q-74 0-114.5 44T61 153v291h76V165q0-49 24-77t73-28q38 0 68.5 23t42.5 60v301h76zm-284 86v61h213v-61H137z"/><glyph glyph-name="Ubreve" unicode="Ŭ" horiz-adv-x="607" d="M303 666q-52 0-83.5 31.5T188 786h57q0-31 16-47.5t42-16.5q27 0 43 16.5t16 47.5h57q0-58-31.5-89T303 666zm0-675Q195-9 129 56T63 244v370h78V253q0-96 43-144t119-48 119 48 43 144v361h79V243q0-122-66-187T303-9z"/><glyph glyph-name="ubreve" unicode="ŭ" horiz-adv-x="487" d="M421 444V0h-76v56q-20-28-54-46.5T216-9q-74 0-114.5 44T61 153v291h76V165q0-49 24-77t73-28q38 0 68.5 23t42.5 60v301h76zm-178 56q-52 0-83 33.5T129 628h57q0-34 15-53.5t42-19.5 42 19.5 15 53.5h57q0-61-31-94.5T243 500z"/><glyph glyph-name="Uring" unicode="Ů" horiz-adv-x="607" d="M303-9Q195-9 129 56T63 244v370h78V253q0-96 43-144t119-48 119 48 43 144v361h79V243q0-122-66-187T303-9zm87 743q0-36-25-61t-62-25-62 25-25 61q0 37 25 62t62 25 62-25 25-62zm-42 0q0 19-13 32.5T303 780t-32-13.5-13-32.5 13-32 32-13 32 13 13 32z"/><glyph glyph-name="uring" unicode="ů" horiz-adv-x="487" d="M330 580q0-37-25-61.5T243 494t-62 24.5-25 61.5 25 61.5 62 24.5 62-24.5 25-61.5zm-42 0q0 19-13 32t-32 13-32-13-13-32 13-32 32-13 32 13 13 32zm133-136V0h-76v56q-20-28-54-46.5T216-9q-74 0-114.5 44T61 153v291h76V165q0-49 24-77t73-28q38 0 68.5 23t42.5 60v301h76z"/><glyph glyph-name="Uhungarumlaut" unicode="Ű" horiz-adv-x="607" d="M303-9Q195-9 129 56T63 244v370h78V253q0-96 43-144t119-48 119 48 43 144v361h79V243q0-122-66-187T303-9zm-24 677h-65l67 117h66zm123 0h-65l66 117h67z"/><glyph glyph-name="uhungarumlaut" unicode="ű" horiz-adv-x="487" d="M421 444V0h-76v56q-20-28-54-46.5T216-9q-74 0-114.5 44T61 153v291h76V165q0-49 24-77t73-28q38 0 68.5 23t42.5 60v301h76zm-209 72h-63l66 134h65zm119 0h-63l67 134h64z"/><glyph glyph-name="Uogonek" unicode="Ų" horiz-adv-x="607" d="M303-9Q195-9 129 56T63 244v370h78V253q0-96 43-144t119-48 119 48 43 144v361h79V243q0-80-27-131.5T435 21q-92-65-92-127 0-26 23-26 14 0 37 15v-50q-26-19-52-19-32 0-49.5 18T284-119q0 59 57 113-12-3-38-3z"/><glyph glyph-name="uogonek" unicode="ų" horiz-adv-x="487" d="M421 444V0q-32-53-40.5-71t-8.5-35q0-26 22-26 16 0 37 15v-50q-24-19-52-19-32 0-49 17.5T313-120q0 18 7.5 38.5t16 34.5T365 0h-20v56q-20-28-54-46.5T216-9q-74 0-114.5 44T61 153v291h76V165q0-49 24-77t73-28q38 0 68.5 23t42.5 60v301h76z"/><glyph glyph-name="Wcircumflex" unicode="Ŵ" horiz-adv-x="767" d="M353 614h63l130-488 126 488h76L585 0h-72L384 479 253 0h-71L19 614h78l126-488zm65 177l92-122h-68l-59 71-59-71h-68l92 122h70z"/><glyph glyph-name="wcircumflex" unicode="ŵ" horiz-adv-x="629" d="M350 645l92-136h-65l-62 88-62-88h-65l92 136h70zm-1-201l91-339 98 339h73L480 0h-73l-92 337L222 0h-73L18 444h75l98-339 91 339h67z"/><glyph glyph-name="Ycircumflex" unicode="Ŷ" horiz-adv-x="557" d="M280 324l177 290h84L317 253V0h-78v253L17 614h86zm34 467l92-122h-68l-59 71-59-71h-68l92 122h70z"/><glyph glyph-name="ycircumflex" unicode="ŷ" horiz-adv-x="455" d="M198-170h-74L191-3 18 444h81L230 94l129 350h78zm65 815l92-136h-65l-62 88-62-88h-65l92 136h70z"/><glyph glyph-name="Ydieresis" unicode="Ÿ" horiz-adv-x="557" d="M280 324l177 290h84L317 253V0h-78v253L17 614h86zM162 722q0 19 13.5 32.5T209 768q19 0 32.5-13.5T255 722t-13.5-32.5T209 676q-20 0-33.5 13.5T162 722zm141 0q0 19 13 32.5t32 13.5q20 0 33.5-13.5T395 722t-13.5-32.5T348 676q-19 0-32 13.5T303 722z"/><glyph glyph-name="Zacute" unicode="Ź" horiz-adv-x="534" d="M492 71V0H41v57l349 487H46v70h442v-56L140 71h352zM319 668h-76l80 117h87z"/><glyph glyph-name="zacute" unicode="ź" horiz-adv-x="434" d="M253 516h-69l80 134h78zM390 64V0H41v49l249 331H49v64h337v-49L139 64h251z"/><glyph glyph-name="Zdotaccent" unicode="Ż" horiz-adv-x="534" d="M335 721q0-19-14.5-33.5T287 673t-33.5 14.5T239 721q0 20 14 34.5t34 14.5 34-14.5 14-34.5zM492 71V0H41v57l349 487H46v70h442v-56L140 71h352z"/><glyph glyph-name="zdotaccent" unicode="ż" horiz-adv-x="434" d="M390 64V0H41v49l249 331H49v64h337v-49L139 64h251zM272 578q0-20-14-34t-34-14-34 14-14 34 14 34 34 14 34-14 14-34z"/><glyph glyph-name="Zcaron" unicode="Ž" horiz-adv-x="534" d="M252 666l-92 121h68l59-71 59 71h68l-92-121h-70zM492 71V0H41v57l349 487H46v70h442v-56L140 71h352z"/><glyph glyph-name="zcaron" unicode="ž" horiz-adv-x="434" d="M351 646l-92-136h-70L97 646h65l62-87 62 87h65zm39-582V0H41v49l249 331H49v64h337v-49L139 64h251z"/><glyph glyph-name="florin" unicode="ƒ" horiz-adv-x="405" d="M68 281v63h82l25 138q12 67 52.5 104T330 623q36 0 61-12v-68q-26 14-60 14-32 0-53.5-21T249 476l-24-132h97v-63H214L158-39q-12-68-45-103t-95-35q-35 0-60 12v68q26-14 59-14 31 0 45.5 19T84-33l55 314H68z"/><glyph glyph-name="Aringacute" unicode="Ǻ" horiz-adv-x="596" d="M261 614h74L575 0h-80l-71 185H171L101 0H21zm36-98L197 254h200zm89 195q0-31-25.5-52.5T297 637q-37 0-62.5 21.5T209 711t25.5 52.5T297 785t63-21.5 26-52.5zm-47 97h-74l55 86h86zm5-97q0 16-13.5 26T297 747q-19 0-32.5-10T251 711t13.5-26 32.5-10q20 0 33.5 10t13.5 26z"/><glyph glyph-name="aringacute" unicode="ǻ" horiz-adv-x="450" d="M316 550q0-31-26-52.5T227 476t-62.5 21.5T139 550t25.5 52.5T227 624q38 0 63.5-21.5T316 550zm-42 0q0 16-13.5 26.5T227 587q-19 0-32.5-10.5T181 550t13.5-26 32.5-10q20 0 33.5 10t13.5 26zm-6 97h-74l56 86h86zM389 0h-72v33q-14-15-47-28T200-8Q130-8 82.5 31T35 134q0 61 49 100t121 39q33 0 65-11t47-25v56q0 43-25.5 69T219 388q-70 0-91-61H54q11 56 56.5 91T220 453q79 0 124-42t45-115V0zm-72 110v46q-10 24-39.5 39.5T213 211q-44 0-75-20t-31-57q0-38 31-58.5T213 55q35 0 64.5 15.5T317 110z"/><glyph glyph-name="AEacute" unicode="Ǽ" horiz-adv-x="862" d="M390 614h421v-70H514V350h268v-70H514V71h297V0H437v185H215L103 0H21zm47-64L257 254h180v296zm183 118h-76l80 117h87z"/><glyph glyph-name="aeacute" unicode="ǽ" horiz-adv-x="731" d="M415 516h-69l80 134h78zM199 55q42 0 72.5 22t43.5 59v71H210q-44 0-74.5-19T105 132t27-57 67-20zm422 78h71q-12-65-59.5-103.5T512-9Q406-9 351 75 290-8 193-8 125-8 79.5 29.5T34 128q0 63 48.5 100.5T205 266h110v27q0 43-25 69t-72 26q-72 0-93-61H53q11 56 56.5 91T219 453q108 0 144-81 56 81 147 81 90 0 139-59.5T698 235v-27H383q1-71 37-112t92-41q42 0 71 20.5t38 57.5zM511 389q-50 0-84-33t-42-91h237q-2 53-30 88.5T511 389z"/><glyph glyph-name="Oslashacute" unicode="Ǿ" horiz-adv-x="639" d="M56 18l56 71q-70 87-70 218 0 139 78 227.5T319 623q97 0 170-60l47 60 46-33-54-67q69-86 69-216 0-139-78-227.5T319-9q-97 0-166 57l-50-63zm65 289q0-96 39-158l284 357q-51 46-125 46-88 0-143-68.5T121 307zm397 0q0 93-38 155L198 105q48-43 121-43 89 0 144 68.5T518 307zM351 668h-76l80 117h87z"/><glyph glyph-name="oslashacute" unicode="ǿ" horiz-adv-x="488" d="M40 1l49 63q-49 61-49 158 0 102 56.5 166.5T244 453q68 0 117-37l42 53 41-29-46-60q50-65 50-158 0-102-56.5-166.5T244-9q-70 0-119 38L81-28zm333 221q0 57-22 99L167 83q31-26 77-26 59 0 94 45.5T373 222zm-258 0q0-58 20-98l184 237q-31 26-75 26-59 0-94-45.5T115 222zm157 294h-69l80 134h78z"/><glyph glyph-name="Scommaaccent" unicode="Ș" horiz-adv-x="509" d="M201-201l39 64q-18 2-29 14t-11 30q0 21 14.5 34.5T250-45t35-14 14-36q0-23-22-57l-29-49h-47zM23 160h80Q138 58 259 58q61 0 98.5 28.5T395 165q0 37-23 60.5T297 262l-110 29Q40 329 40 449q0 77 57 125.5T242 623q93 0 150-43.5T467 461h-79q-33 95-146 95-56 0-91.5-27.5T115 455q0-38 24-59.5t74-34.5l105-27q153-39 153-165 0-82-59.5-130T259-9 103 35.5 23 160z"/><glyph glyph-name="scommaaccent" unicode="ș" horiz-adv-x="414" d="M161-201l39 64q-18 2-29 14t-11 30q0 21 14.5 34.5T210-45t35-14 14-36q0-23-22-57l-29-49h-47zM30 122h78q21-68 105-68 41 0 66 16.5t25 49.5q0 45-66 62l-88 23Q43 232 43 322q0 58 45 94.5T202 453q72 0 116-33t56-93h-75q-20 63-98 63-35 0-60-16.5T116 326q0-22 14.5-34.5T178 270l86-21q113-30 113-124 0-62-46-98T212-9 89.5 26 30 122z"/><glyph glyph-name="uni0237" unicode="ȷ" horiz-adv-x="207" d="M142 444V-51q0-62-33.5-95T13-179q-21 0-32 4v64q18-3 26-3 60 0 60 68v490h75z"/><glyph glyph-name="circumflex" unicode="ˆ" d="M285 645l92-136h-65l-62 88-62-88h-65l92 136h70z"/><glyph glyph-name="caron" unicode="ˇ" d="M377 646l-92-136h-70l-92 136h65l62-87 62 87h65z"/><glyph glyph-name="breve" unicode="˘" d="M250 500q-52 0-83 33.5T136 628h57q0-34 15-53.5t42-19.5 42 19.5 15 53.5h57q0-61-31-94.5T250 500z"/><glyph glyph-name="dotaccent" unicode="˙" d="M298 578q0-20-14-34t-34-14-34 14-14 34 14 34 34 14 34-14 14-34z"/><glyph glyph-name="ring" unicode="˚" d="M337 580q0-37-25-61.5T250 494t-62 24.5-25 61.5 25 61.5 62 24.5 62-24.5 25-61.5zm-42 0q0 19-13 32t-32 13-32-13-13-32 13-32 32-13 32 13 13 32z"/><glyph glyph-name="ogonek" unicode="˛" d="M249 4h56q-33-54-42.5-73.5T253-106q0-26 22-26 16 0 37 15v-50q-24-19-52-19-32 0-49 17.5T194-120q0 18 8.5 39.5t16 34.5T249 4z"/><glyph glyph-name="tilde" unicode="˜" d="M333 633h48q0-54-19.5-86T305 515q-25 0-57.5 29T201 573q-34 0-34-55h-48q0 54 19.5 86t56.5 32q25 0 57.5-29t46.5-29q32 0 34 55z"/><glyph glyph-name="hungarumlaut" unicode="˝" d="M188 516h-63l66 134h65zm119 0h-63l67 134h64z"/><glyph glyph-name="Wgrave" unicode="Ẁ" horiz-adv-x="767" d="M421 668h-75l-92 117h87zm-68-54h63l130-488 126 488h76L585 0h-72L384 479 253 0h-71L19 614h78l126-488z"/><glyph glyph-name="wgrave" unicode="ẁ" horiz-adv-x="629" d="M349 444l91-339 98 339h73L480 0h-73l-92 337L222 0h-73L18 444h75l98-339 91 339h67zm4 72h-69l-89 134h78z"/><glyph glyph-name="Wacute" unicode="Ẃ" horiz-adv-x="767" d="M420 668h-76l80 117h87zm-67-54h63l130-488 126 488h76L585 0h-72L384 479 253 0h-71L19 614h78l126-488z"/><glyph glyph-name="wacute" unicode="ẃ" horiz-adv-x="629" d="M344 516h-69l80 134h78zm5-72l91-339 98 339h73L480 0h-73l-92 337L222 0h-73L18 444h75l98-339 91 339h67z"/><glyph glyph-name="Wdieresis" unicode="Ẅ" horiz-adv-x="767" d="M267 722q0 19 13.5 32.5T314 768q19 0 32.5-13.5T360 722t-13.5-32.5T314 676q-20 0-33.5 13.5T267 722zm141 0q0 19 13 32.5t32 13.5q20 0 33.5-13.5T500 722t-13.5-32.5T453 676q-19 0-32 13.5T408 722zm-55-108h63l130-488 126 488h76L585 0h-72L384 479 253 0h-71L19 614h78l126-488z"/><glyph glyph-name="wdieresis" unicode="ẅ" horiz-adv-x="629" d="M198 571q0 20 13.5 33.5T245 618q19 0 32.5-13.5T291 571q0-19-13.5-32.5T245 525t-33 13.5-14 32.5zm141 0q0 20 13 33.5t32 13.5q20 0 33.5-13.5T431 571q0-19-14-32.5T384 525t-32 13.5-13 32.5zm10-127l91-339 98 339h73L480 0h-73l-92 337L222 0h-73L18 444h75l98-339 91 339h67z"/><glyph glyph-name="Ygrave" unicode="Ỳ" horiz-adv-x="557" d="M280 324l177 290h84L317 253V0h-78v253L17 614h86zm39 344h-75l-92 117h87z"/><glyph glyph-name="ygrave" unicode="ỳ" horiz-adv-x="455" d="M198-170h-74L191-3 18 444h81L230 94l129 350h78zm68 686h-69l-89 134h78z"/><glyph glyph-name="endash" unicode="–" horiz-adv-x="475" d="M40 231v61h395v-61H40z"/><glyph glyph-name="emdash" unicode="—" horiz-adv-x="846" d="M40 231v61h766v-61H40z"/><glyph glyph-name="quoteleft" unicode="‘" horiz-adv-x="168" d="M149 614L88 511q19-3 31.5-16.5T132 461q0-23-15.5-38T78 408t-38 15.5T25 466q0 26 22 63l51 85h51z"/><glyph glyph-name="quoteright" unicode="’" horiz-adv-x="168" d="M19 417l61 103q-19 3-31.5 16.5T36 570q0 23 15.5 38T90 623t38-15.5 15-42.5q0-26-22-63l-51-85H19z"/><glyph glyph-name="quotesinglbase" unicode="‚" horiz-adv-x="161" d="M19-103L80 0Q61 3 48.5 16.5T36 50q0 23 15.5 38T90 103t38-15.5T143 45q0-26-22-63l-51-85H19z"/><glyph glyph-name="quotedblleft" unicode="“" horiz-adv-x="321" d="M149 614L88 511q19-3 31.5-16.5T132 461q0-23-15.5-38T78 408t-38 15.5T25 466q0 26 22 63l51 85h51zm153 0l-61-103q19-3 31.5-16.5T285 461q0-23-15.5-38T231 408t-38 15.5-15 42.5q0 26 22 63l51 85h51z"/><glyph glyph-name="quotedblright" unicode="”" horiz-adv-x="321" d="M19 417l61 103q-19 3-31.5 16.5T36 570q0 23 15.5 38T90 623t38-15.5 15-42.5q0-26-22-63l-51-85H19zm153 0l61 103q-19 3-31.5 16.5T189 570q0 23 15.5 38t38.5 15 38-15.5 15-42.5q0-26-22-63l-51-85h-51z"/><glyph glyph-name="quotedblbase" unicode="„" horiz-adv-x="321" d="M19-103L80 0Q61 3 48.5 16.5T36 50q0 23 15.5 38T90 103t38-15.5T143 45q0-26-22-63l-51-85H19zm153 0L233 0q-19 3-31.5 16.5T189 50q0 23 15.5 38t38.5 15 38-15.5T296 45q0-26-22-63l-51-85h-51z"/><glyph glyph-name="dagger" unicode="†" horiz-adv-x="317" d="M30 502v56h99v92h58v-92h99v-56h-99V295h-58v207H30z"/><glyph glyph-name="daggerdbl" unicode="‡" horiz-adv-x="325" d="M34 512v53h99v85h58v-85h101v-53H191v-80h101v-52H191v-85h-58v85H34v52h99v80H34z"/><glyph glyph-name="bullet" unicode="•" horiz-adv-x="343" d="M308 261q0-59-39.5-97.5T171 125t-97 38.5T35 261t39 97.5 97 38.5 97.5-38.5T308 261z"/><glyph glyph-name="ellipsis" unicode="…" horiz-adv-x="554" d="M32 49q0 23 15.5 39T86 104q22 0 37.5-16T139 49t-15.5-38.5T86-5Q63-5 47.5 10.5T32 49zm192 0q0 23 15.5 39t37.5 16q23 0 38.5-16T331 49t-15.5-38.5T277-5q-22 0-37.5 15.5T224 49zm191 0q0 23 15.5 39t38.5 16q22 0 37.5-16T522 49t-15.5-38.5T469-5q-23 0-38.5 15.5T415 49z"/><glyph glyph-name="perthousand" unicode="‰" horiz-adv-x="941" d="M99 0l383 614h62L161 0H99zM33 490q0 56 38.5 94.5T166 623t94.5-38.5T299 490t-38.5-94.5T166 357t-94.5 38.5T33 490zm576-366q0-56-38.5-94.5T476-9t-94.5 38.5T343 124t38.5 94.5T476 257t94.5-38.5T609 124zm-59 0q0 31-21.5 52.5T476 198t-53-21.5-22-52.5 22-53 53-22 52.5 22 21.5 53zm358 0q0-56-39-94.5T775-9t-94 38.5-39 94.5 39 94.5 94 38.5 94-38.5 39-94.5zm-59 0q0 31-21.5 52.5T775 198t-53-21.5-22-52.5 22-53 53-22 52.5 22 21.5 53zM92 490q0-31 21.5-52.5T166 416t53 21.5 22 52.5-22 53-53 22-52.5-22T92 490z"/><glyph glyph-name="guilsinglleft" unicode="‹" horiz-adv-x="215" d="M190 74h-73L25 222l92 148h73L98 222z"/><glyph glyph-name="guilsinglright" unicode="›" horiz-adv-x="215" d="M98 74H25l92 148-92 148h73l92-148z"/><glyph glyph-name="fraction" unicode="⁄" horiz-adv-x="210" d="M330 614L-53 0h-67l383 614h67z"/><glyph glyph-name="Euro" unicode="€" horiz-adv-x="543" d="M29 339v60h60q20 104 82.5 164T320 623q76 0 128-44t69-124h-72q-14 47-46 73t-79 26q-57 0-97.5-41.5T166 399h205l-12-60H158q-1-11-1-32 0-25 1-37h191l-12-60H167q17-70 56.5-110T320 60q47 0 79 26t46 73h72q-17-80-69-124T320-9q-85 0-146.5 58.5T90 210H29v60h53q-1 12-1 37 0 21 1 32H29z"/><glyph glyph-name="uni2117" unicode="℗" horiz-adv-x="706" d="M669 307q0-136-92-226T353-9 129 81 37 307t92 226 224 90 224-90 92-226zm-39 0q0 119-80.5 198T353 584t-196.5-79T76 307t80.5-198T353 30t196.5 79T630 307zm-241-53h-83V124h-69v369h152q59 0 93.5-31t34.5-88-34.5-88.5T389 254zm60 120q0 27-16.5 42.5T385 432h-79V316h79q64 0 64 58z"/><glyph glyph-name="trademark" unicode="™" horiz-adv-x="586" d="M18 568v46h217v-46h-81V360h-54v208H18zm409-208h-36l-65 168V360h-50v254h64l69-180 69 180h64V360h-50v168z"/><glyph glyph-name="uni2153" unicode="⅓" horiz-adv-x="685" d="M569 614L140 0H73l429 614h67zm-77-469v48h23q23 0 37.5 12t14.5 34q0 20-13.5 32.5T518 284q-21 0-35.5-13.5T465 235h-62q5 45 35.5 74t77.5 29q51 0 80.5-27t29.5-70q0-24-13-44t-33-28q51-18 51-72 0-45-30.5-73.5T517-5q-52 0-83 28t-36 77h64q7-51 57-51 24 0 38 13t14 36q0 22-15 34.5T517 145h-25zM191 615V282h-62v259l-88-44v64l108 54h42z"/><glyph glyph-name="uni2154" unicode="⅔" horiz-adv-x="745" d="M629 614L200 0h-67l429 614h67zm-419-92q0 19-13 31.5T164 566q-22 0-35-15t-15-38H48q5 48 36.5 78.5T164 622q50 0 79-27t29-72q0-20-11-41t-20.5-32-32.5-36l-74-75h141v-55H49v43l112 117q26 27 37.5 44t11.5 34zm342-377v48h23q23 0 37.5 12t14.5 34q0 20-13.5 32.5T578 284q-21 0-35.5-13.5T525 235h-62q5 45 35.5 74t77.5 29q51 0 80.5-27t29.5-70q0-24-13-44t-32-28q50-18 50-72 0-45-30.5-73.5T577-5q-52 0-83 28t-36 77h65q5-51 56-51 24 0 38 13t14 36q0 22-15 34.5T577 145h-25z"/><glyph glyph-name="uni215B" unicode="⅛" horiz-adv-x="691" d="M569 614L140 0H73l429 614h67zM519 46q26 0 42 14.5T577 97t-16.5 36-41.5 14-41.5-14T461 97t16-36.5T519 46zm0 153q21 0 35 13t14 32q0 20-14 32.5T519 289q-22 0-36-12.5T469 244t14-32.5 36-12.5zm0-203q-51 0-85.5 26.5T399 92q0 30 16.5 51t42.5 29q-47 21-47 73 0 43 30.5 68t77.5 25q46 0 77-25t31-68q0-51-48-73 26-8 42.5-29T638 92q0-43-34-69.5T519-4zM191 615V282h-62v259l-88-44v64l108 54h42z"/><glyph glyph-name="uni215C" unicode="⅜" horiz-adv-x="730" d="M558 46q25 0 41.5 14.5T616 97t-16.5 36-41.5 14-41.5-14T500 97t16-36.5T558 46zm0 153q21 0 35 13t14 32q0 20-14 32.5T558 289q-22 0-36.5-12.5T507 244q0-19 14.5-32t36.5-13zm0-203q-51 0-85.5 26.5T438 92q0 30 16.5 51t42.5 29q-48 22-48 73 0 43 31 68t78 25q45 0 76.5-25t31.5-68q0-51-48-73 26-8 42.5-29T677 92q0-43-34-69.5T558-4zm50 618L179 0h-67l428 614h68zM140 427v48h24q23 0 37 12t14 34q0 20-13.5 32.5T166 566q-21 0-35.5-14T114 517H51q6 45 36 73.5t77 28.5q51 0 80.5-26.5T274 523q0-25-12.5-44.5T229 451q50-18 50-73 0-44-30.5-72.5T166 277q-53 0-84 28t-36 77h65q7-51 56-51 24 0 38.5 13t14.5 36q0 22-15 34.5T166 427h-26z"/><glyph glyph-name="uni215D" unicode="⅝" horiz-adv-x="733" d="M562 46q25 0 41.5 14.5T620 97t-16.5 36-41.5 14-41.5-14T504 97t16-36.5T562 46zm0 153q21 0 35 13t14 32q0 20-14 32.5T562 289q-22 0-36.5-12.5T511 244q0-19 14.5-32t36.5-13zm0-203q-52 0-86 26.5T442 92q0 30 16.5 51t42.5 29q-48 22-48 73 0 43 31 68t78 25q45 0 76.5-25t31.5-68q0-51-48-73 26-8 42.5-29T681 92q0-43-34-69.5T562-4zm50 618L183 0h-67l428 614h68zM171 447q-30 0-48-24H69v191h194v-55H121v-77q23 17 56 17 48 0 78-31t30-79q0-50-31.5-81T171 277q-52 0-84 28.5T50 382h64q4-23 19-37t39-14q23 0 38 16.5t15 40.5q0 25-15 42t-39 17z"/><glyph glyph-name="uni215E" unicode="⅞" horiz-adv-x="673" d="M502 46q25 0 41.5 14.5T560 97t-16.5 36-41.5 14-41.5-14T444 97t16-36.5T502 46zm0 153q21 0 35 13t14 32q0 20-14 32.5T502 289q-22 0-36.5-12.5T451 244q0-19 14.5-32t36.5-13zm0-203q-52 0-86 26.5T382 92q0 30 16.5 51t42.5 29q-48 22-48 73 0 43 31 68t78 25q45 0 76.5-25t31.5-68q0-51-48-73 26-8 42.5-29T621 92q0-43-34-69.5T502-4zm49 618L123 0H56l428 614h67zm-281-46L161 281H96l107 277H46v56h224v-46z"/><glyph glyph-name="minus" unicode="−" horiz-adv-x="540" d="M73 266v62h394v-62H73z"/><glyph glyph-name="approxequal" unicode="≈" horiz-adv-x="551" d="M79 308v62q51 40 106 40 34 0 90-20.5t89-20.5q52 0 109 43v-61q-56-42-109-42-34 0-90 21t-89 21q-53 0-106-43zm0-124v61q51 41 106 41 34 0 90-21t89-21q54 0 109 43v-61q-55-41-109-41-34 0-90 20.5T185 226q-52 0-106-42z"/><glyph glyph-name="notequal" unicode="≠" horiz-adv-x="551" d="M79 338v57h238l68 93h59l-68-93h97v-57H334l-60-82h199v-57H233l-67-92h-59l67 92H79v57h136l60 82H79z"/><glyph glyph-name="lessequal" unicode="≤" horiz-adv-x="427" d="M63 308v74l297 121v-68l-230-90 230-91v-67zm0-217v62h297V91H63z"/><glyph glyph-name="greaterequal" unicode="≥" horiz-adv-x="427" d="M364 382v-74L67 187v67l229 91-229 90v68zm0-229V91H67v62h297z"/><glyph glyph-name="fi" unicode="ﬁ" horiz-adv-x="498" d="M431 444V0h-75v444h75zm11 134q0-20-14.5-34T393 530q-19 0-33.5 14T345 578t14 34 34 14 34.5-14 14.5-34zm-153 71v-68q-19 12-47 12-34 0-53.5-21T169 512v-68h100v-64H169V0H95v380H20v64h75v74q0 65 38 103t98 38q34 0 58-10z"/><glyph glyph-name="fl" unicode="ﬂ" horiz-adv-x="498" d="M431 650V0h-75v650h75zm-142-1v-68q-19 12-47 12-34 0-53.5-21T169 512v-68h100v-64H169V0H95v380H20v64h75v74q0 65 38 103t98 38q34 0 58-10z"/><glyph glyph-name="i.dot" horiz-adv-x="209" d="M142 444V0H67v444h75zm10 134q0-20-14-34t-34-14-34 14-14 34 14 34 34 14 34-14 14-34z"/><glyph glyph-name="space_uni0326" d="M204-201l39 64q-18 2-29 14t-11 30q0 21 14.5 34.5T253-45t35-14 14-36q0-23-22-57l-29-49h-47z"/><glyph glyph-name="space_uni0326.alt" d="M297 680l-40-65q18-2 29.5-14.5T298 569q0-21-14.5-34.5T247 521q-21 0-35.5 14T197 572q0 26 22 59l29 49h49z"/><glyph glyph-name="space_dotbelowcomb" d="M298-108q0-20-14-34t-34-14-34 14-14 34 14 34 34 14 34-14 14-34z"/><glyph glyph-name="caron.Slovak" d="M258 486h-60l33 164h60z"/><glyph glyph-name="cedilla.alt" d="M250-183h-71l66 132h74z"/><glyph glyph-name="grave.cap" d="M333 668h-75l-92 117h87z"/><glyph glyph-name="acute.cap" d="M242 668h-76l80 117h87z"/><glyph glyph-name="circumflex.cap" d="M285 791l92-122h-68l-59 71-59-71h-68l92 122h70z"/><glyph glyph-name="caron.cap" d="M215 666l-92 121h68l59-71 59 71h68l-92-121h-70z"/><glyph glyph-name="tilde.cap" d="M336 784h48q0-55-19.5-87T308 665q-26 0-60 28t-50 28q-34 0-34-53h-49q0 55 19.5 87t56.5 32q27 0 60.5-28t50.5-28q32 0 34 53z"/><glyph glyph-name="macron.cap" d="M143 671v61h213v-61H143z"/><glyph glyph-name="breve.cap" d="M249 666q-52 0-83.5 31.5T134 786h57q0-31 16-47.5t42-16.5q27 0 43 16.5t16 47.5h57q0-58-31.5-89T249 666z"/><glyph glyph-name="dotaccent.cap" d="M298 721q0-19-14-33.5T250 673t-34 14.5-14 33.5q0 20 14 34.5t34 14.5 34-14.5 14-34.5z"/><glyph glyph-name="dieresis.cap" d="M133 722q0 19 13.5 32.5T180 768q19 0 32.5-13.5T226 722t-13.5-32.5T180 676q-20 0-33.5 13.5T133 722zm141 0q0 19 13 32.5t32 13.5q20 0 33.5-13.5T366 722t-13.5-32.5T319 676q-19 0-32 13.5T274 722z"/><glyph glyph-name="ring.cap" d="M337 734q0-36-25-61t-62-25-62 25-25 61q0 37 25 62t62 25 62-25 25-62zm-42 0q0 19-13 32.5T250 780t-32-13.5-13-32.5 13-32 32-13 32 13 13 32z"/><glyph glyph-name="hungarumlaut.cap" d="M187 668h-65l67 117h66zm123 0h-65l66 117h67z"/><glyph glyph-name="exclamdown.cap" horiz-adv-x="203" d="M48 565q0 23 15.5 38.5T101 619q23 0 38.5-15.5T155 565t-15.5-39-38.5-16q-22 0-37.5 16T48 565zM57 0l17 421h54L146 0H57z"/><glyph glyph-name="questiondown.cap" horiz-adv-x="432" d="M262 564q0-23-15.5-39T209 509q-23 0-38.5 16T155 564t15.5 38.5T209 618q22 0 37.5-15.5T262 564zM24 162q0 12 1.5 23.5T32 209t7.5 20 12 21 12 18T79 287.5 93.5 304t16.5 18l16 16q41 44 43 82h74q-2-36-14.5-61T185 300q-5-6-26.5-28.5t-30.5-34-18.5-32.5-9.5-42q0-47 30-75t81-28q53 0 84 33.5t36 89.5h81q-9-87-63.5-140T211-10q-87 0-137 46.5T24 162z"/><glyph glyph-name="guilsinglleft.cap" horiz-adv-x="215" d="M190 158h-73L25 305l92 148h73L98 305z"/><glyph glyph-name="guilsinglright.cap" horiz-adv-x="215" d="M98 158H25l92 147-92 148h73l92-148z"/><glyph glyph-name="guillemotleft.cap" horiz-adv-x="357" d="M187 158h-70L25 305l92 148h70L95 305zm145 0h-70l-92 147 92 148h70l-92-148z"/><glyph glyph-name="guillemotright.cap" horiz-adv-x="357" d="M240 158h-70l92 147-92 148h70l92-148zm-145 0H25l92 147-92 148h70l92-148z"/><glyph glyph-name="slash.cap" horiz-adv-x="333" d="M5-64l248 734h75L80-64H5z"/><glyph glyph-name="backslash.cap" horiz-adv-x="333" d="M80 670L328-64h-75L5 670h75z"/><glyph glyph-name="bar.cap" horiz-adv-x="219" d="M73-64v734h73V-64H73z"/><glyph glyph-name="periodcentered.cap" horiz-adv-x="176" d="M34 302q0 23 15.5 39T88 357q22 0 37.5-16t15.5-39-15.5-38.5T88 248q-23 0-38.5 15.5T34 302z"/><glyph glyph-name="bullet.cap" horiz-adv-x="343" d="M308 301q0-59-39.5-97.5T171 165t-97 38.5T35 301t39 97.5 97 38.5 97.5-38.5T308 301z"/><glyph glyph-name="hyphen.cap" horiz-adv-x="321" d="M40 266v70h241v-70H40z"/><glyph glyph-name="endash.cap" horiz-adv-x="475" d="M40 271v61h395v-61H40z"/><glyph glyph-name="emdash.cap" horiz-adv-x="846" d="M40 271v61h766v-61H40z"/><glyph glyph-name="parenleft.cap" horiz-adv-x="321" d="M30 301q0 137 72.5 236T298 668v-80q-83-20-138-97.5T105 301q0-111 55-188.5T298 14v-80Q175-34 102.5 65T30 301z"/><glyph glyph-name="parenright.cap" horiz-adv-x="321" d="M291 301q0-137-72.5-236T23-66v80q83 21 138 98.5T216 301q0 112-55 189.5T23 588v80q123-32 195.5-131T291 301z"/><glyph glyph-name="bracketleft.cap" horiz-adv-x="313" d="M145 600V3h145v-69H73v734h217v-68H145z"/><glyph glyph-name="bracketright.cap" horiz-adv-x="313" d="M168 3v597H23v68h217V-66H23V3h145z"/><glyph glyph-name="braceleft.cap" horiz-adv-x="339" d="M175 225V39q0-36 36-36h105v-69H212q-49 0-80 31.5T101 47v183q0 36-35 36H20v70h46q35 0 35 37v183q0 50 31 81t80 31h104v-68H211q-36 0-36-37V378q0-51-43-77 43-26 43-76z"/><glyph glyph-name="braceright.cap" horiz-adv-x="339" d="M164 39v186q0 50 43 76-43 26-43 77v185q0 37-36 37H23v68h104q49 0 80-31t31-81V373q0-37 35-37h46v-70h-46q-35 0-35-36V47q0-50-31-81.5T127-66H23V3h105q36 0 36 36z"/><glyph glyph-name="at.cap" horiz-adv-x="774" d="M560 473l-43-243q-9-54 40-54 55 0 90 50t35 137q0 108-76 173.5T411 602q-140 0-228.5-91T94 280q0-76 28-134t75.5-89.5 101-47T412-6q116 0 217 46v-57q-94-45-217-45-60 0-114.5 12.5t-103 39-84.5 66-57 97T32 280q0 160 106 269t273 109q146 0 238.5-84T742 363q0-115-57.5-178T547 122q-36 0-63 15.5T447 180q-15-25-43.5-41T345 123q-61 0-96.5 42T213 271q0 85 51.5 148T395 482q63 0 91-46l7 37h67zM450 243l23 124q-9 23-28.5 38T399 420q-52 0-84.5-44.5T282 274q0-40 20.5-64.5T359 185q53 0 91 58z"/><glyph glyph-name="Euro.lt" horiz-adv-x="520" d="M24 339v60h64q19 104 79 164t142 60q73 0 123-44.5T498 455h-74q-26 99-117 99-53 0-90.5-41.5T164 399h192l-12-60H157q-1-11-1-32 0-25 1-37h177l-12-60H166q15-70 52-110t89-40q91 0 117 99h74q-16-79-66-123.5T309-9q-81 0-140.5 58.5T89 210H24v60h57q-1 12-1 37 0 21 1 32H24z"/><glyph glyph-name="dollar.lt" horiz-adv-x="520" d="M235-89v99q-72 8-121 48.5T51 166h77q31-92 142-92 57 0 92 26.5t35 72.5q0 34-21 56t-69 35l-103 27Q66 326 66 443q0 68 47 112.5T235 605v90h68v-93q129-22 161-149h-74q-31 88-136 88-52 0-84.5-25.5T137 447q0-36 22.5-56t69.5-33l97-25q143-37 143-157 0-70-45.5-114T303 10v-99h-68z"/><glyph glyph-name="cent.lt" horiz-adv-x="520" d="M69 232q0 94 47 156t125 73v87h69v-88q58-10 93.5-48.5T448 315h-75q-7 38-34 60t-68 22q-57 0-91.5-46T145 232t34.5-119T271 67q41 0 68 22t34 60h75q-8-58-44-96.5T310 4v-91h-69V3q-78 11-125 73T69 232z"/><glyph glyph-name="sterling.lt" horiz-adv-x="520" d="M200 425v-91h155v-62H200V156q0-62-22-91h296V0H44v65h61q22 36 22 91v116H44v62h83v91q0 87 50 142.5T307 623q71 0 115-39.5T476 478h-74q-13 79-95 79-50 0-78.5-35.5T200 425z"/><glyph glyph-name="yen.lt" horiz-adv-x="520" d="M64 264v59h128L24 614h84l153-275 153 275h81L327 323h128v-59H298v-70h157v-60H298V0h-77v134H64v60h157v70H64z"/><glyph glyph-name="florin.lt" horiz-adv-x="520" d="M153 281v63h82l25 138q12 67 52.5 104T415 623q35 0 61-12v-68q-26 14-60 14-32 0-53.5-21T334 476l-24-132h97v-63H299L243-39q-12-68-45-103t-95-35q-35 0-60 12v68q26-14 59-14 31 0 45.5 19T169-33l55 314h-71z"/><glyph glyph-name="zero.lt" horiz-adv-x="520" d="M260-9Q158-9 95 78.5T32 307t63 228.5T260 623t165-87.5T488 307 425 78.5 260-9zm0 561q-73 0-112.5-67T108 307t39.5-178T260 62q72 0 111.5 67T411 307t-39.5 178T260 552z"/><glyph glyph-name="one.lt" horiz-adv-x="520" d="M77 0v70h175v450L80 432v80l202 103h47V70h154V0H77z"/><glyph glyph-name="two.lt" horiz-adv-x="520" d="M367 449q0 47-30.5 75.5T255 553q-54 0-86-33.5T132 430H52q9 87 63.5 140T255 623q88 0 138.5-47T444 450q0-34-17.5-70T386 316t-57-64l-11-11L159 70h297V0H51v52l201 218q6 6 20.5 22.5t20 22.5 17.5 20 16.5 20.5 13 18 12 19.5 8 18 6 19 1.5 19z"/><glyph glyph-name="three.lt" horiz-adv-x="520" d="M216 281v67h44q52 0 85 27.5t33 75.5q0 46-33 75t-86 29q-51 0-83.5-30T135 446H58q11 79 66 128t137 49q89 0 140.5-46.5T453 455q0-50-27.5-88.5T355 315q50-14 80-53.5t30-91.5q0-77-54.5-128T263-9q-94 0-151 49T46 175h78q8-54 43.5-85T262 59q56 0 91.5 31t35.5 81q0 51-36 80.5T261 281h-45z"/><glyph glyph-name="four.lt" horiz-adv-x="520" d="M344 614L115 205h196v148h73V205h108v-66H384V0h-73v139H28v56l236 419h80z"/><glyph glyph-name="five.lt" horiz-adv-x="520" d="M263 330q-73 0-118-53H84v337h347v-70H149V358q46 40 119 40 87 0 143-57.5T467 194q0-88-57.5-145.5T262-9q-91 0-149 49T44 175h78q10-55 46.5-85.5T263 59q57 0 93.5 38.5T393 194t-36.5 97-93.5 39z"/><glyph glyph-name="six.lt" horiz-adv-x="520" d="M138 196q0-60 38-99t97-39 97 38.5 38 99.5-38 100.5-97 39.5-97-39-38-101zm334 275h-79q-28 87-115 87-68 0-112.5-67.5T121 323q0-3 .5-13t.5-14q16 47 59.5 76t98.5 29q88 0 144.5-59.5T481 197q0-87-58-146.5T273-9Q146-9 88 108q-37 75-37 188 0 148 63 237.5T278 623q155 0 194-152z"/><glyph glyph-name="seven.lt" horiz-adv-x="520" d="M468 553L243 0h-79l224 544H47v70h421v-61z"/><glyph glyph-name="eight.lt" horiz-adv-x="520" d="M261 55q60 0 99 33t39 85q0 51-39 84t-99 33q-59 0-98-33t-39-84q0-52 39-85t98-33zm0 301q49 0 82.5 28.5T377 457q0 45-33 73.5T261 559q-49 0-82-28.5T146 457q0-44 33-72.5t82-28.5zm0-365q-91 0-151.5 49T49 167q0 58 34 100t87 56q-44 15-71.5 52T71 461q0 73 54.5 117.5T261 623q82 0 136.5-44.5T452 461q0-49-27.5-86T353 323q53-14 87-56t34-100q0-78-60.5-127T261-9z"/><glyph glyph-name="nine.lt" horiz-adv-x="520" d="M382 418q0 60-38 99t-97 39-97-38.5-38-99.5 38-100.5 97-39.5 97 39 38 101zM48 143h79q28-87 115-87 68 0 112.5 67.5T399 291q0 3-.5 13t-.5 14q-16-47-59.5-76T240 213q-88 0-144.5 59.5T39 417q0 87 58 146.5T247 623q127 0 185-117 37-75 37-188 0-148-63-237.5T242-9Q87-9 48 143z"/><glyph glyph-name="period.tab" horiz-adv-x="260" d="M77 49q0 23 15.5 39t37.5 16 37.5-16T183 49t-15-38.5T130-5 92 10.5 77 49z"/><glyph glyph-name="comma.tab" horiz-adv-x="260" d="M57-107L120-1q-19 3-31 16T77 49q0 23 15 38t38 15 38-15.5T183 44q0-31-22-63l-53-88H57z"/><glyph glyph-name="colon.tab" horiz-adv-x="260" d="M76 49q0 23 15.5 39t38.5 16q22 0 37.5-16T183 49t-15.5-38.5T130-5q-23 0-38.5 15.5T76 49zm0 314q0 23 15.5 39t38.5 16q22 0 37.5-16t15.5-39-15.5-38.5T130 309q-23 0-38.5 15.5T76 363z"/><glyph glyph-name="semicolon.tab" horiz-adv-x="260" d="M57-107L120-1Q76 6 76 49q0 23 15.5 38t38.5 15 38-15.5T183 44q0-28-22-63l-53-88H57zm19 470q0 23 15.5 39t38.5 16q22 0 37.5-16t15.5-39-15.5-38.5T130 309q-23 0-38.5 15.5T76 363z"/><glyph glyph-name="space.tab" horiz-adv-x="260"/><glyph glyph-name="percent.lt" horiz-adv-x="520" d="M19 501q0 51 35.5 86.5T141 623t86.5-35.5T263 501q0-50-35.5-85.5T141 380t-86.5 35.5T19 501zm53 0q0-29 20-49t49-20 49 20 20 49-20 49.5-49 20.5-49-20.5T72 501zm429-388q0-51-35.5-86.5T380-9q-51 0-87 35.5T257 113q0 50 36 85.5t87 35.5q50 0 85.5-35.5T501 113zm-53 0q0 29-20 49t-48 20q-29 0-49.5-20T310 113t20.5-49.5T380 43q28 0 48 20.5t20 49.5zM38 0l383 614h62L100 0H38z"/><glyph glyph-name="perthousand.lt" horiz-adv-x="800" d="M42 0l383 614h62L104 0H42zm34 501q0-29 20-49t49-20 49 20 20 49-20 49.5-49 20.5-49-20.5T76 501zm429-388q0-51-35.5-86.5T384-9q-51 0-87 35.5T261 113q0 50 36 85.5t87 35.5q50 0 85.5-35.5T505 113zm-53 0q0 29-20 49t-48 20q-29 0-49.5-20T314 113t20.5-49.5T384 43q28 0 48 20.5t20 49.5zM23 501q0 51 35.5 86.5T145 623t86.5-35.5T267 501q0-50-35.5-85.5T145 380t-86.5 35.5T23 501zm753-388q0-51-35.5-86.5T655-9q-51 0-86.5 35.5T533 113q0 50 35.5 85.5T655 234q50 0 85.5-35.5T776 113zm-52 0q0 29-20 49t-49 20-49-20-20-49 20-49.5T655 43t49 20.5 20 49.5z"/><glyph glyph-name="plus.lt" horiz-adv-x="520" d="M229 494h62V328h166v-62H291V100h-62v166H62v62h167v166z"/><glyph glyph-name="minus.lt" horiz-adv-x="520" d="M62 266v62h395v-62H62z"/><glyph glyph-name="multiply.lt" horiz-adv-x="520" d="M218 295L96 416l43 42 120-122 122 122 42-42-121-121 121-122-42-43-122 122-120-122-43 43z"/><glyph glyph-name="divide.lt" horiz-adv-x="520" d="M62 266v62h395v-62H62zm148 192q0 21 14.5 36t35.5 15q20 0 35-15t15-36-15-36-35-15q-21 0-35.5 15T210 458zm0-322q0 21 14.5 36t35.5 15q20 0 35-15t15-36-15-36-35-15q-21 0-35.5 15T210 136z"/><glyph glyph-name="equal.lt" horiz-adv-x="520" d="M62 199v58h395v-58H62zm0 138v60h395v-60H62z"/><glyph glyph-name="less.lt" horiz-adv-x="520" d="M112 256v78l296 151v-71L170 295l238-119v-71z"/><glyph glyph-name="greater.lt" horiz-adv-x="520" d="M408 334v-78L111 105v71l238 119-238 119v71z"/><glyph glyph-name="plusminus.lt" horiz-adv-x="520" d="M229 518h61V389h164v-62H290V198h-61v129H65v62h164v129zM65 88v62h389V88H65z"/><glyph glyph-name="lessequal.lt" horiz-adv-x="520" d="M111 308v74l297 121v-68l-230-90 230-91v-67zm0-217v62h297V91H111z"/><glyph glyph-name="greaterequal.lt" horiz-adv-x="520" d="M408 382v-74L111 187v67l229 91-229 90v68zm0-229V91H111v62h297z"/><glyph glyph-name="notequal.lt" horiz-adv-x="520" d="M62 338v57h238l68 93h60l-68-93h97v-57H318l-60-82h199v-57H217l-67-92H91l67 92H62v57h137l60 82H62z"/><glyph glyph-name="approxequal.lt" horiz-adv-x="520" d="M62 308v62q52 40 107 40 34 0 90-20.5t89-20.5q52 0 109 43v-61q-56-42-109-42-34 0-90 21t-89 21q-53 0-107-43zm0-124v61q52 41 107 41 34 0 90-21t89-21q54 0 109 43v-61q-55-41-109-41-34 0-90 20.5T169 226q-52 0-107-42z"/></font>
</defs>
</svg>
